<svg width="628" height="628" viewBox="0 0 628 628" fill="none" xmlns="http://www.w3.org/2000/svg">
<path d="M343.625 21.1887C398.234 32.1749 460.301 62.5538 485.671 115.227C524.011 194.811 592.982 194.007 610.707 344.71C613.472 368.208 613.646 390.307 611.58 410.964C610.471 422.069 608.7 432.762 606.33 443.021C584.912 536.15 514.256 594.256 433.288 611.105C326.8 633.285 263.675 566.617 225.941 522.76C188.207 478.904 62.7943 438.846 44.2055 290.832C41.3808 268.264 40.8633 245.378 43.2698 222.736C48.7434 171.055 70.3328 115.951 108.996 79.7484C111.901 77.0305 114.898 74.4017 117.973 71.8507C178.14 22.0528 269.173 6.20588 343.625 21.1887Z" fill="#3264FF"/>
<path opacity="0.7" d="M343.625 21.1887C398.234 32.1749 460.301 62.5538 485.671 115.227C524.011 194.811 592.982 194.007 610.707 344.71C613.472 368.208 613.646 390.307 611.58 410.964C610.471 422.069 608.7 432.762 606.33 443.021C584.912 536.15 514.256 594.256 433.288 611.105C326.8 633.285 263.675 566.617 225.941 522.76C188.207 478.904 62.7943 438.846 44.2055 290.832C41.3808 268.264 40.8633 245.378 43.2698 222.736C48.7434 171.055 70.3328 115.951 108.996 79.7484C111.901 77.0305 114.898 74.4017 117.973 71.8507C178.14 22.0528 269.173 6.20588 343.625 21.1887Z" fill="white"/>
<path d="M67.4805 72.436L85.0142 89.9698" stroke="#292B2F" stroke-miterlimit="10" stroke-linecap="round" stroke-linejoin="round"/>
<path d="M85.0142 72.436L67.4805 89.9698" stroke="#292B2F" stroke-miterlimit="10" stroke-linecap="round" stroke-linejoin="round"/>
<path d="M561.869 533.051L579.403 550.585" stroke="#292B2F" stroke-miterlimit="10" stroke-linecap="round" stroke-linejoin="round"/>
<path d="M579.403 533.051L561.869 550.585" stroke="#292B2F" stroke-miterlimit="10" stroke-linecap="round" stroke-linejoin="round"/>
<path d="M174.426 165.295L186.346 177.214" stroke="#292B2F" stroke-miterlimit="10" stroke-linecap="round" stroke-linejoin="round"/>
<path d="M186.346 165.295L174.426 177.214" stroke="#292B2F" stroke-miterlimit="10" stroke-linecap="round" stroke-linejoin="round"/>
<path d="M477.949 449.544L489.869 461.464" stroke="#292B2F" stroke-miterlimit="10" stroke-linecap="round" stroke-linejoin="round"/>
<path d="M489.869 449.544L477.949 461.464" stroke="#292B2F" stroke-miterlimit="10" stroke-linecap="round" stroke-linejoin="round"/>
<path d="M114.896 558.366L126.816 570.286" stroke="#292B2F" stroke-miterlimit="10" stroke-linecap="round" stroke-linejoin="round"/>
<path d="M126.816 558.366L114.896 570.286" stroke="#292B2F" stroke-miterlimit="10" stroke-linecap="round" stroke-linejoin="round"/>
<path d="M474.195 38.6484L486.115 50.5691" stroke="#292B2F" stroke-miterlimit="10" stroke-linecap="round" stroke-linejoin="round"/>
<path d="M486.115 38.6484L474.195 50.5691" stroke="#292B2F" stroke-miterlimit="10" stroke-linecap="round" stroke-linejoin="round"/>
<path d="M86.4779 141.841C86.4779 137.697 83.1181 134.337 78.9733 134.337C74.8285 134.337 71.4688 137.697 71.4688 141.841C71.4688 145.986 74.8285 149.346 78.9733 149.346C83.1181 149.346 86.4779 145.986 86.4779 141.841Z" stroke="#292B2F" stroke-miterlimit="10" stroke-linecap="round" stroke-linejoin="round"/>
<path d="M328.513 42.4013C328.513 38.2565 325.153 34.8967 321.009 34.8967C316.864 34.8967 313.504 38.2565 313.504 42.4013C313.504 46.5461 316.864 49.9059 321.009 49.9059C325.153 49.9059 328.513 46.5461 328.513 42.4013Z" stroke="#292B2F" stroke-miterlimit="10" stroke-linecap="round" stroke-linejoin="round"/>
<path d="M562.104 465.491C566.249 465.491 569.609 462.131 569.609 457.987C569.609 453.842 566.249 450.482 562.104 450.482C557.96 450.482 554.6 453.842 554.6 457.987C554.6 462.131 557.96 465.491 562.104 465.491Z" stroke="#292B2F" stroke-miterlimit="10" stroke-linecap="round" stroke-linejoin="round"/>
<path d="M277.855 593.076C277.855 588.931 274.495 585.571 270.35 585.571C266.205 585.571 262.846 588.931 262.846 593.076C262.846 597.22 266.205 600.58 270.35 600.58C274.494 600.582 277.855 597.22 277.855 593.076Z" stroke="#292B2F" stroke-miterlimit="10" stroke-linecap="round" stroke-linejoin="round"/>
<path d="M162.466 397.947C162.466 393.802 159.106 390.443 154.962 390.443C150.817 390.443 147.457 393.802 147.457 397.947C147.457 402.092 150.817 405.452 154.962 405.452C159.106 405.453 162.466 402.092 162.466 397.947Z" stroke="#292B2F" stroke-miterlimit="10" stroke-linecap="round" stroke-linejoin="round"/>
<path d="M609.949 169.985C609.949 165.84 606.589 162.48 602.444 162.48C598.299 162.48 594.939 165.84 594.939 169.985C594.939 174.129 598.299 177.489 602.444 177.489C606.588 177.49 609.949 174.129 609.949 169.985Z" stroke="#292B2F" stroke-miterlimit="10" stroke-linecap="round" stroke-linejoin="round"/>
<path d="M618.54 295.365H9.36914" stroke="#292B2F" stroke-miterlimit="10" stroke-linecap="round" stroke-linejoin="round"/>
<path d="M59.3867 367.909L62.6925 397.941C62.6925 406.762 77.4957 413.912 95.7555 413.912C114.015 413.912 128.818 406.762 128.818 397.941L132.124 367.909H59.3867Z" fill="#9AA5B9" stroke="#292B2F" stroke-miterlimit="10" stroke-linecap="round" stroke-linejoin="round"/>
<path d="M57.0117 350.154V368.667C57.0117 373.398 74.3583 379.286 95.7556 379.286C117.153 379.286 134.499 373.398 134.499 368.667V350.154H57.0117Z" fill="#9AA5B9" stroke="#292B2F" stroke-miterlimit="10" stroke-linecap="round" stroke-linejoin="round"/>
<path d="M95.7575 361.126C117.155 361.126 134.501 356.214 134.501 350.154C134.501 344.094 117.155 339.182 95.7575 339.182C74.3599 339.182 57.0137 344.094 57.0137 350.154C57.0137 356.214 74.3599 361.126 95.7575 361.126Z" fill="#9AA5B9" stroke="#292B2F" stroke-miterlimit="10" stroke-linecap="round" stroke-linejoin="round"/>
<path d="M95.7569 358.705C112.431 358.705 125.947 354.876 125.947 350.154C125.947 345.431 112.431 341.603 95.7569 341.603C79.0831 341.603 65.5664 345.431 65.5664 350.154C65.5664 354.876 79.0831 358.705 95.7569 358.705Z" fill="#292B2F"/>
<path d="M29.1979 242.982C32.785 243.967 41.0106 242.584 41.0169 242.583C41.1023 242.568 38.4597 237.438 38.2562 237.133C35.8962 233.608 29.2632 228.184 24.6951 229.489C21.4044 230.43 20.0253 234.059 21.2411 237.109C22.4833 240.226 26.1421 242.143 29.1979 242.982Z" fill="#292B2F"/>
<path d="M112.929 232.694C113.009 232.729 113.635 226.993 113.633 226.626C113.609 222.385 111.068 214.202 106.539 212.771C103.276 211.74 100.123 214.006 99.4551 217.221C98.7718 220.505 100.766 224.123 102.851 226.508C105.3 229.308 112.924 232.692 112.929 232.694Z" fill="#292B2F"/>
<path d="M133.223 199.219C128.475 199.394 123.85 206.606 122.697 210.688C122.598 211.041 121.675 216.738 121.762 216.724C121.762 216.724 121.842 216.712 121.861 216.709C121.121 217.842 120.342 219.065 119.518 220.418C118.016 222.929 116.341 225.781 114.727 229.008C113.107 232.227 111.435 235.771 110.013 239.662C108.581 243.561 107.275 247.735 106.485 252.21C106.476 252.26 106.474 252.314 106.465 252.364C106.289 250.984 105.67 247.139 105.588 246.85C104.445 242.766 99.8344 235.544 95.088 235.359C91.6679 235.227 89.2262 238.246 89.4297 241.523C89.6382 244.87 92.5169 247.833 95.1583 249.582C98.1363 251.555 105.788 252.775 106.398 252.87C105.685 257.14 105.301 261.577 105.157 266.091C105.073 268.671 105.068 271.273 105.097 273.881C104.907 272.691 104.728 271.63 104.686 271.484C103.543 267.399 98.9326 260.178 94.1862 259.993C90.7661 259.861 88.3244 262.88 88.5279 266.156C88.7364 269.504 91.6151 272.467 94.2565 274.216C96.9368 275.991 103.439 277.163 105.164 277.449C105.185 278.45 105.195 279.449 105.221 280.45C105.341 285.25 105.483 290.039 105.476 294.74C105.475 296.397 105.414 298.029 105.357 299.663C105.186 298.608 105.035 297.718 104.998 297.587C103.855 293.501 99.2441 286.28 94.4964 286.095C91.0763 285.962 88.6346 288.98 88.8381 292.259C89.0466 295.605 91.9254 298.569 94.5667 300.318C97.1239 302.013 103.116 303.147 105.165 303.499C105.057 305.169 104.951 306.842 104.772 308.456C104.624 309.555 104.557 310.624 104.348 311.719C104.164 312.808 103.98 313.887 103.8 314.955C103.375 316.998 102.949 319.109 102.485 321.093C102.173 322.474 101.849 323.785 101.527 325.107C101.549 323.458 101.52 320.227 101.487 319.958C101.147 317.16 99.499 312.77 97.0662 309.869C97.0184 309.456 96.9356 309.048 96.8112 308.649C95.8303 305.516 92.4705 303.57 89.3242 304.917C84.9558 306.786 83.2313 315.177 83.6232 319.401C83.6458 319.649 84.1997 322.325 84.5765 324.008C84.2047 323.052 83.8543 322.121 83.4599 321.143C82.6925 319.202 81.8686 317.289 80.9906 315.226C80.5322 314.245 80.0675 313.254 79.599 312.254C79.1556 311.252 78.5603 310.25 78.0415 309.235C76.7868 306.909 75.4014 304.613 73.9558 302.329C75.6526 301.652 81.6463 299.164 83.8669 296.884C86.0774 294.615 88.2629 291.109 87.758 287.795C87.2631 284.549 84.2374 282.116 80.9228 282.971C76.3221 284.156 73.3454 292.19 73.0942 296.425C73.0778 296.689 73.2386 299.748 73.3604 301.426C72.48 300.06 71.6083 298.693 70.6738 297.34C67.9747 293.437 65.1211 289.568 62.2913 285.697C61.4234 284.512 60.5744 283.321 59.7178 282.132C60.3244 281.898 67.5125 279.093 69.9994 276.54C72.2112 274.27 74.3954 270.765 73.8917 267.449C73.3969 264.203 70.3711 261.77 67.0566 262.625C62.4558 263.81 59.4804 271.844 59.2279 276.079C59.2091 276.398 59.4465 280.799 59.562 281.915C57.6793 279.295 55.8267 276.667 54.1059 274C51.7271 270.325 49.5957 266.589 47.7983 262.814C48.0809 262.706 55.5956 259.812 58.144 257.197C60.3545 254.928 62.54 251.422 62.0351 248.108C61.5402 244.861 58.5145 242.429 55.1999 243.282C50.5992 244.468 47.6237 252.501 47.3713 256.735C47.3549 257.014 47.532 260.369 47.6539 261.961C47.5094 261.998 47.5358 261.992 47.3914 262.029C45.5149 257.964 44.2087 253.789 43.1787 249.821C42.5784 247.524 42.1325 245.294 41.7469 243.116C43.2014 242.722 49.8305 240.842 52.384 238.74C54.8307 236.727 57.3879 233.483 57.251 230.133C57.1153 226.852 54.3747 224.102 50.9873 224.587C46.2848 225.26 42.444 232.918 41.7281 237.099C41.6891 237.326 41.5497 239.681 41.4718 241.398C41.3136 240.412 41.1315 239.399 40.9983 238.45C40.4897 234.895 40.2422 231.606 40.0475 228.692C39.9496 227.035 39.8943 225.534 39.8566 224.129C41.0825 222.997 45.9633 218.369 47.2381 215.384C48.4816 212.47 49.2565 208.412 47.5911 205.502C45.9595 202.652 42.2594 201.474 39.4761 203.466C35.6126 206.23 35.7332 214.797 37.0243 218.838C37.1361 219.187 39.5087 224.448 39.574 224.389C39.574 224.389 39.6343 224.334 39.6481 224.322C39.6569 225.674 39.682 227.124 39.7411 228.708C39.873 231.632 40.0488 234.934 40.4821 238.516C40.9066 242.095 41.4681 245.973 42.4289 250.003C43.386 254.045 44.5993 258.247 46.4092 262.415C46.4293 262.463 46.4569 262.508 46.477 262.555C45.5689 261.5 42.9313 258.637 42.704 258.44C39.4962 255.664 31.6675 252.183 27.6069 254.648C24.6804 256.424 24.3086 260.288 26.2868 262.91C28.3077 265.586 32.3432 266.469 35.5109 266.472C39.0842 266.474 46.1391 263.27 46.6993 263.014C48.459 266.968 50.5866 270.883 52.958 274.725C54.3107 276.924 55.7425 279.096 57.2045 281.256C56.3906 280.369 55.6559 279.583 55.5416 279.484C52.3337 276.707 44.5051 273.228 40.4444 275.693C37.518 277.469 37.1462 281.334 39.1256 283.955C41.1453 286.632 45.1821 287.516 48.3497 287.517C51.5638 287.52 57.6341 284.91 59.2317 284.196C59.8019 285.019 60.3608 285.847 60.9336 286.667C63.6817 290.603 66.4424 294.521 69.031 298.446C69.9441 299.829 70.7919 301.224 71.6472 302.617C70.9225 301.831 70.3058 301.174 70.2016 301.083C66.995 298.306 59.1651 294.827 55.1045 297.293C52.1792 299.069 51.8075 302.933 53.7857 305.555C55.8066 308.231 59.8408 309.114 63.0097 309.117C66.0781 309.119 71.7013 306.76 73.6028 305.923C74.4331 307.376 75.2695 308.829 76.0093 310.275C76.4929 311.273 77.0267 312.2 77.4562 313.23C77.9034 314.24 78.3455 315.241 78.7826 316.232C79.555 318.171 80.3651 320.167 81.0723 322.077C81.5734 323.402 82.0268 324.675 82.4878 325.953C81.5948 324.567 79.7899 321.888 79.6141 321.682C76.8647 318.451 69.654 313.825 65.2655 315.647C62.1054 316.959 61.1509 320.723 62.7096 323.613C64.3009 326.565 68.1556 328.05 71.288 328.532C74.7357 329.062 81.9113 327.08 82.8068 326.826C83.5617 328.946 84.2751 331.016 84.9169 332.981C87.1388 339.719 88.7376 345.42 89.8065 349.448L92.993 348.986C92.9666 348.894 92.944 348.813 92.9163 348.718C91.7458 344.66 89.9949 338.89 87.5809 332.071C86.8235 329.915 85.9707 327.625 85.0726 325.283C85.5901 324.985 88.5254 323.272 91.0625 321.327C93.847 323.585 100.455 325.74 101.31 326.012C100.77 328.198 100.224 330.318 99.6761 332.31C97.8122 339.156 95.9998 344.793 94.6697 348.742L98.1664 348.235C99.3647 344.335 100.872 339.151 102.399 333.022C102.957 330.805 103.509 328.425 104.052 325.976C104.964 326.032 112.413 326.453 115.675 325.204C118.633 324.069 122.087 321.802 123.018 318.579C123.928 315.424 122.2 311.948 118.833 311.335C114.159 310.483 108.09 316.532 106.088 320.271C105.97 320.492 104.955 323.028 104.342 324.64C104.559 323.637 104.781 322.668 104.992 321.634C105.422 319.592 105.79 317.542 106.196 315.338C106.354 314.266 106.514 313.184 106.675 312.091C106.858 311.011 106.914 309.846 107.04 308.713C107.276 306.081 107.389 303.402 107.442 300.7C109.231 301.073 115.602 302.303 118.713 301.627C121.809 300.954 125.566 299.236 126.974 296.192C128.352 293.212 127.17 289.513 123.935 288.398C119.443 286.849 112.529 291.907 109.983 295.301C109.823 295.512 108.271 298.152 107.446 299.619C107.465 297.995 107.492 296.373 107.458 294.729C107.362 289.984 107.114 285.184 106.891 280.393C106.82 278.926 106.77 277.464 106.712 276C107.347 276.139 114.889 277.766 118.373 277.008C121.469 276.336 125.226 274.617 126.634 271.574C128.012 268.593 126.83 264.895 123.594 263.779C119.103 262.23 112.188 267.288 109.643 270.681C109.45 270.937 107.221 274.737 106.701 275.732C106.577 272.508 106.481 269.293 106.518 266.121C106.56 261.743 106.844 257.45 107.427 253.311C107.722 253.378 115.586 255.11 119.154 254.335C122.25 253.662 126.007 251.944 127.415 248.899C128.794 245.919 127.611 242.221 124.375 241.104C119.884 239.554 112.97 244.614 110.424 248.007C110.257 248.23 108.555 251.123 107.777 252.52C107.637 252.471 107.662 252.48 107.521 252.431C108.198 248.006 109.413 243.803 110.743 239.927C111.509 237.68 112.367 235.575 113.247 233.546C114.679 234.019 121.244 236.108 124.532 235.764C127.684 235.435 131.606 234.14 133.341 231.27C135.038 228.459 134.269 224.652 131.175 223.187C126.881 221.155 119.453 225.424 116.551 228.515C116.392 228.684 114.977 230.571 113.964 231.961C114.376 231.051 114.785 230.104 115.195 229.24C116.733 225.993 118.34 223.115 119.785 220.576C120.617 219.139 121.4 217.857 122.143 216.665C123.79 216.396 130.413 215.229 133.125 213.442C135.77 211.698 138.655 208.741 138.87 205.394C139.079 202.117 136.643 199.092 133.223 199.219Z" fill="#292B2F"/>
<path d="M435.788 548.009L435.195 544.082C435.389 544.053 454.609 541.055 463.802 532.212C465.775 530.316 465.726 528.946 465.518 528.081C463.391 519.254 430.887 505.47 366.149 485.944C355.49 482.727 345.162 479.663 335.268 476.725C270.628 457.539 227.925 444.864 224.976 430.479C224.238 426.883 225.86 423.401 229.795 420.132C252.199 401.527 341.372 394.78 345.158 394.502L345.449 398.463C344.535 398.531 253.764 405.389 232.334 423.189C228.233 426.594 228.709 428.919 228.866 429.683C231.338 441.735 277.701 455.496 336.398 472.918C346.298 475.857 356.631 478.924 367.297 482.141C453.767 508.224 467.462 519.188 469.38 527.152C470.056 529.96 469.106 532.626 466.556 535.076C456.444 544.796 436.627 547.882 435.788 548.009Z" fill="white" stroke="#292B2F" stroke-miterlimit="10" stroke-linecap="round" stroke-linejoin="round"/>
<path d="M232.615 418.081L238.345 419.324C267.027 404.388 344.604 398.525 345.449 398.463L345.158 394.502C341.515 394.77 258.808 401.03 232.615 418.081Z" fill="#292B2F" stroke="#292B2F" stroke-miterlimit="10" stroke-linecap="round" stroke-linejoin="round"/>
<path d="M446.444 552.256C447.957 547.365 446.087 542.013 441.805 539.205C436.028 535.415 425.512 530.786 407.682 529.512C376.116 527.258 354.696 538.907 344.55 548.677C334.404 558.448 336.659 570.097 351.314 577.238C365.969 584.378 376.492 586.257 388.892 584.378C401.293 582.499 421.586 572.729 428.725 567.843C435.865 562.958 444.508 558.448 446.387 552.435C446.408 552.374 446.426 552.315 446.444 552.256Z" fill="#3264FF" stroke="#292B2F" stroke-miterlimit="10" stroke-linecap="round" stroke-linejoin="round"/>
<path d="M397.913 575.357C380.251 587.382 363.341 581.745 363.341 581.745L362.951 582.073C372.102 585.126 380.021 585.721 388.894 584.377C401.294 582.498 421.588 572.727 428.727 567.843C435.867 562.958 444.51 558.448 446.389 552.435C446.407 552.375 446.426 552.316 446.444 552.256C446.595 551.77 446.702 551.277 446.787 550.785C435.665 553.479 413.553 564.709 397.913 575.357Z" fill="white" stroke="#292B2F" stroke-miterlimit="10" stroke-linecap="round" stroke-linejoin="round"/>
<path d="M371.983 554.689C371.983 557.386 368.702 559.574 364.656 559.574C360.609 559.574 357.328 557.388 357.328 554.689C357.328 551.989 360.609 549.804 364.656 549.804C368.702 549.804 371.983 551.991 371.983 554.689Z" fill="white" stroke="#292B2F" stroke-miterlimit="10" stroke-linecap="round" stroke-linejoin="round"/>
<path d="M224.328 479.972L223.523 476.083C235.411 473.621 243.273 470.062 244.377 468.297C243.164 467.005 238.068 464.314 233.919 462.123C218.762 454.121 193.396 440.727 201.457 423.45C206.179 413.332 231.859 404.485 279.964 396.404C314.864 390.539 348.917 387.396 349.256 387.364L349.618 391.321C349.278 391.352 315.355 394.485 280.6 400.324C220.206 410.472 207.345 420.221 205.055 425.131C198.591 438.98 220.964 450.793 235.77 458.611C244.762 463.359 248.866 465.525 248.435 468.54C247.581 474.533 231.292 478.532 224.328 479.972Z" fill="white" stroke="#292B2F" stroke-miterlimit="10" stroke-linecap="round" stroke-linejoin="round"/>
<path d="M349.257 387.365C348.916 387.397 314.864 390.541 279.964 396.405C247.728 401.82 225.578 407.581 213.041 413.836L219.625 415.264C230.502 410.814 249.061 405.624 280.603 400.324C315.357 394.485 349.281 391.352 349.62 391.321L349.257 387.365Z" fill="#292B2F" stroke="#292B2F" stroke-miterlimit="10" stroke-linecap="round" stroke-linejoin="round"/>
<path d="M347.64 508.292L275.808 549.181L14.1152 458.422L93.6904 429.743L347.64 508.292Z" fill="white" stroke="#292B2F" stroke-miterlimit="10" stroke-linecap="round" stroke-linejoin="round"/>
<path d="M232.238 487.519L240.772 490.14L249.703 485.479L241.265 482.952L232.238 487.519Z" fill="#292B2F" stroke="#292B2F" stroke-miterlimit="10" stroke-linecap="round" stroke-linejoin="round"/>
<path d="M218.988 476.629L211.588 481.177L228.589 486.399L237.583 481.849L219.413 476.408L218.988 476.629Z" fill="#292B2F" stroke="#292B2F" stroke-miterlimit="10" stroke-linecap="round" stroke-linejoin="round"/>
<path d="M244.375 491.247L253.462 494.036L262.512 489.315L253.34 486.568L244.375 491.247Z" fill="#292B2F" stroke="#292B2F" stroke-miterlimit="10" stroke-linecap="round" stroke-linejoin="round"/>
<path d="M186.338 473.424L194.556 475.947L202.981 471.487L195.441 469.23L186.338 473.424Z" fill="#292B2F" stroke="#292B2F" stroke-miterlimit="10" stroke-linecap="round" stroke-linejoin="round"/>
<path d="M198.133 477.046L208.215 480.142L215.971 475.377L206.586 472.567L198.133 477.046Z" fill="#292B2F" stroke="#292B2F" stroke-miterlimit="10" stroke-linecap="round" stroke-linejoin="round"/>
<path d="M239.034 501.565L230.05 498.722L221.131 503.376L229.996 506.282L239.034 501.565Z" fill="#292B2F" stroke="#292B2F" stroke-miterlimit="10" stroke-linecap="round" stroke-linejoin="round"/>
<path d="M257.064 495.143L268.541 498.667L277.729 493.872L266.148 490.403L257.064 495.143Z" fill="#292B2F" stroke="#292B2F" stroke-miterlimit="10" stroke-linecap="round" stroke-linejoin="round"/>
<path d="M164.365 466.677L172.213 469.087L180.927 464.883L172.871 462.471L164.365 466.677Z" fill="#292B2F" stroke="#292B2F" stroke-miterlimit="10" stroke-linecap="round" stroke-linejoin="round"/>
<path d="M266.899 510.383L257.508 507.411L248.221 512.257L258.024 515.471L266.899 510.383Z" fill="#292B2F" stroke="#292B2F" stroke-miterlimit="10" stroke-linecap="round" stroke-linejoin="round"/>
<path d="M277.634 504.229L268.801 501.517L260.818 505.683L270.019 508.595L277.634 504.229Z" fill="#292B2F" stroke="#292B2F" stroke-miterlimit="10" stroke-linecap="round" stroke-linejoin="round"/>
<path d="M272.143 499.774L280.78 502.425L289.534 497.407L281.365 494.961L272.143 499.774Z" fill="#292B2F" stroke="#292B2F" stroke-miterlimit="10" stroke-linecap="round" stroke-linejoin="round"/>
<path d="M253.944 506.284L242.597 502.693L233.51 507.435L244.705 511.105L253.944 506.284Z" fill="#292B2F" stroke="#292B2F" stroke-miterlimit="10" stroke-linecap="round" stroke-linejoin="round"/>
<path d="M303.374 501.551L293.029 498.454L284.244 503.49L294.429 506.618L303.374 501.551Z" fill="#292B2F" stroke="#292B2F" stroke-miterlimit="10" stroke-linecap="round" stroke-linejoin="round"/>
<path d="M291.259 508.414L281.099 505.294L273.447 509.68L283.44 512.842L291.259 508.414Z" fill="#292B2F" stroke="#292B2F" stroke-miterlimit="10" stroke-linecap="round" stroke-linejoin="round"/>
<path d="M184.563 466.066L175.936 470.23L182.542 472.259L191.608 468.082L184.696 466.011L184.563 466.066Z" fill="#292B2F" stroke="#292B2F" stroke-miterlimit="10" stroke-linecap="round" stroke-linejoin="round"/>
<path d="M61.6359 459.536L69.0324 456.296L64.4845 454.805L56.7148 457.875L61.6359 459.536Z" fill="#292B2F" stroke="#292B2F" stroke-miterlimit="10" stroke-linecap="round" stroke-linejoin="round"/>
<path d="M63.7461 451.777L72.67 454.703L80.3391 451.344L71.2733 448.475L63.7461 451.777Z" fill="#292B2F" stroke="#292B2F" stroke-miterlimit="10" stroke-linecap="round" stroke-linejoin="round"/>
<path d="M74.9492 446.861L84.0175 449.731L90.6718 446.816L81.4842 443.995L74.9492 446.861Z" fill="#292B2F" stroke="#292B2F" stroke-miterlimit="10" stroke-linecap="round" stroke-linejoin="round"/>
<path d="M100.447 466.596L95.1183 464.849L86.8613 468.055L92.8462 470.076L100.447 466.596Z" fill="#292B2F" stroke="#292B2F" stroke-miterlimit="10" stroke-linecap="round" stroke-linejoin="round"/>
<path d="M80.1457 459.941L72.8056 457.533L65.3613 460.795L72.6524 463.257L80.1457 459.941Z" fill="#292B2F" stroke="#292B2F" stroke-miterlimit="10" stroke-linecap="round" stroke-linejoin="round"/>
<path d="M87.8496 450.944L91.7407 452.175L98.1061 449.099L94.5516 448.008L87.8496 450.944Z" fill="#292B2F" stroke="#292B2F" stroke-miterlimit="10" stroke-linecap="round" stroke-linejoin="round"/>
<path d="M91.1507 463.548L83.9036 461.172L76.3613 464.509L82.9478 466.733L91.1507 463.548Z" fill="#292B2F" stroke="#292B2F" stroke-miterlimit="10" stroke-linecap="round" stroke-linejoin="round"/>
<path d="M153.271 463.269L160.681 465.545L169.154 461.358L161.917 459.191L153.271 463.269Z" fill="#292B2F" stroke="#292B2F" stroke-miterlimit="10" stroke-linecap="round" stroke-linejoin="round"/>
<path d="M132.363 456.849L138.462 458.723L146.42 454.55L140.382 452.742L132.363 456.849Z" fill="#292B2F" stroke="#292B2F" stroke-miterlimit="10" stroke-linecap="round" stroke-linejoin="round"/>
<path d="M101.217 455.174L107.849 452.091L101.827 450.242L95.416 453.339L101.217 455.174Z" fill="#292B2F" stroke="#292B2F" stroke-miterlimit="10" stroke-linecap="round" stroke-linejoin="round"/>
<path d="M142.059 459.827L149.514 462.116L158.122 458.054L150.045 455.635L142.059 459.827Z" fill="#292B2F" stroke="#292B2F" stroke-miterlimit="10" stroke-linecap="round" stroke-linejoin="round"/>
<path d="M129.846 449.667L121.348 453.466L128.734 455.735L136.72 451.645L129.959 449.62L129.846 449.667Z" fill="#292B2F" stroke="#292B2F" stroke-miterlimit="10" stroke-linecap="round" stroke-linejoin="round"/>
<path d="M110.227 450.051L117.503 452.286L126.07 448.455L118.394 446.156L110.227 450.051Z" fill="#292B2F" stroke="#292B2F" stroke-miterlimit="10" stroke-linecap="round" stroke-linejoin="round"/>
<path d="M98.2695 446.379L106.485 448.902L114.616 445.026L106.741 442.667L98.2695 446.379Z" fill="#292B2F" stroke="#292B2F" stroke-miterlimit="10" stroke-linecap="round" stroke-linejoin="round"/>
<path d="M205.41 488.148L217.542 491.988L225.182 488.123L212.351 484.182L205.41 488.148Z" fill="#292B2F" stroke="#292B2F" stroke-miterlimit="10" stroke-linecap="round" stroke-linejoin="round"/>
<path d="M221.15 493.129L229.799 495.866L237.431 491.883L228.832 489.243L221.15 493.129Z" fill="#292B2F" stroke="#292B2F" stroke-miterlimit="10" stroke-linecap="round" stroke-linejoin="round"/>
<path d="M265.199 500.41L253.723 496.887L245.908 500.964L257.256 504.555L265.199 500.41Z" fill="#292B2F" stroke="#292B2F" stroke-miterlimit="10" stroke-linecap="round" stroke-linejoin="round"/>
<path d="M233.361 496.993L242.347 499.838L250.12 495.78L241.034 492.99L233.361 496.993Z" fill="#292B2F" stroke="#292B2F" stroke-miterlimit="10" stroke-linecap="round" stroke-linejoin="round"/>
<path d="M111.562 470.24L104.154 467.811L96.5078 471.313L103.917 473.815L111.562 470.24Z" fill="#292B2F" stroke="#292B2F" stroke-miterlimit="10" stroke-linecap="round" stroke-linejoin="round"/>
<path d="M169.219 476.695L178.089 479.502L184.508 475.632L175.882 472.983L169.219 476.695Z" fill="#292B2F" stroke="#292B2F" stroke-miterlimit="10" stroke-linecap="round" stroke-linejoin="round"/>
<path d="M181.451 480.566L190.086 483.299L196.699 479.375L187.906 476.675L181.451 480.566Z" fill="#292B2F" stroke="#292B2F" stroke-miterlimit="10" stroke-linecap="round" stroke-linejoin="round"/>
<path d="M193.471 484.37L201.976 487.062L208.881 483.117L200.119 480.426L193.471 484.37Z" fill="#292B2F" stroke="#292B2F" stroke-miterlimit="10" stroke-linecap="round" stroke-linejoin="round"/>
<path d="M106.999 459.78L101.403 458.009L93.6914 461.595L99.6273 463.541L106.999 459.78Z" fill="#292B2F" stroke="#292B2F" stroke-miterlimit="10" stroke-linecap="round" stroke-linejoin="round"/>
<path d="M94.3886 445.188L102.821 441.494L89.916 437.629L89.9411 437.703L80.4922 440.92L94.3886 445.188Z" fill="#292B2F" stroke="#292B2F" stroke-miterlimit="10" stroke-linecap="round" stroke-linejoin="round"/>
<path d="M76.1766 439.595L85.6782 436.359L82.9602 435.546L73.7852 438.86L76.1766 439.595Z" fill="#292B2F" stroke="#292B2F" stroke-miterlimit="10" stroke-linecap="round" stroke-linejoin="round"/>
<path d="M325.773 505.496L338.74 509.378L342.111 507.463L329.32 503.552L325.773 505.496Z" fill="#292B2F" stroke="#292B2F" stroke-miterlimit="10" stroke-linecap="round" stroke-linejoin="round"/>
<path d="M97.665 456.826L91.9451 455.016L84.541 458.594L90.0071 460.387L97.665 456.826Z" fill="#292B2F" stroke="#292B2F" stroke-miterlimit="10" stroke-linecap="round" stroke-linejoin="round"/>
<path d="M158.26 473.227L165.749 475.597L172.375 471.906L164.855 469.597L158.26 473.227Z" fill="#292B2F" stroke="#292B2F" stroke-miterlimit="10" stroke-linecap="round" stroke-linejoin="round"/>
<path d="M76.4434 455.941L80.9147 457.406L88.2686 453.853L84.169 452.556L76.4434 455.941Z" fill="#292B2F" stroke="#292B2F" stroke-miterlimit="10" stroke-linecap="round" stroke-linejoin="round"/>
<path d="M146.539 469.517L154.775 472.123L161.332 468.514L152.916 465.93L146.539 469.517Z" fill="#292B2F" stroke="#292B2F" stroke-miterlimit="10" stroke-linecap="round" stroke-linejoin="round"/>
<path d="M139.922 470.199L132.535 467.861L124.814 471.799L132.563 474.338L139.922 470.199Z" fill="#292B2F" stroke="#292B2F" stroke-miterlimit="10" stroke-linecap="round" stroke-linejoin="round"/>
<path d="M151.57 473.886L143.379 471.294L135.975 475.458L143.958 478.075L151.57 473.886Z" fill="#292B2F" stroke="#292B2F" stroke-miterlimit="10" stroke-linecap="round" stroke-linejoin="round"/>
<path d="M175.07 481.323L166.042 478.466L158.301 482.778L167.599 485.826L175.07 481.323Z" fill="#292B2F" stroke="#292B2F" stroke-miterlimit="10" stroke-linecap="round" stroke-linejoin="round"/>
<path d="M226.486 497.594L217.773 494.836L208.852 499.35L217.615 502.224L226.486 497.594Z" fill="#292B2F" stroke="#292B2F" stroke-miterlimit="10" stroke-linecap="round" stroke-linejoin="round"/>
<path d="M187.032 485.109L178.431 482.387L170.92 486.915L179.335 489.674L187.032 485.109Z" fill="#292B2F" stroke="#292B2F" stroke-miterlimit="10" stroke-linecap="round" stroke-linejoin="round"/>
<path d="M214.166 493.695L190.419 486.18L182.68 490.771L205.293 498.184L214.166 493.695Z" fill="#292B2F" stroke="#292B2F" stroke-miterlimit="10" stroke-linecap="round" stroke-linejoin="round"/>
<path d="M162.572 477.367L155.057 474.989L147.4 479.203L154.876 481.655L162.572 477.367Z" fill="#292B2F" stroke="#292B2F" stroke-miterlimit="10" stroke-linecap="round" stroke-linejoin="round"/>
<path d="M125.766 462.944L132.299 465.011L138.922 461.634L132.395 459.629L125.766 462.944Z" fill="#292B2F" stroke="#292B2F" stroke-miterlimit="10" stroke-linecap="round" stroke-linejoin="round"/>
<path d="M113.951 459.205L122.142 461.796L128.728 458.503L120.362 455.933L113.951 459.205Z" fill="#292B2F" stroke="#292B2F" stroke-miterlimit="10" stroke-linecap="round" stroke-linejoin="round"/>
<path d="M128.941 466.725L122.348 464.637L114.502 468.418L121.269 470.636L128.941 466.725Z" fill="#292B2F" stroke="#292B2F" stroke-miterlimit="10" stroke-linecap="round" stroke-linejoin="round"/>
<path d="M135.895 466.149L143.08 468.423L149.419 464.857L142.559 462.751L135.895 466.149Z" fill="#292B2F" stroke="#292B2F" stroke-miterlimit="10" stroke-linecap="round" stroke-linejoin="round"/>
<path d="M104.955 456.358L110.356 458.067L116.725 454.816L111.632 453.253L104.955 456.358Z" fill="#292B2F" stroke="#292B2F" stroke-miterlimit="10" stroke-linecap="round" stroke-linejoin="round"/>
<path d="M118.667 463.473L110.593 460.918L103.174 464.704L110.874 467.228L118.667 463.473Z" fill="#292B2F" stroke="#292B2F" stroke-miterlimit="10" stroke-linecap="round" stroke-linejoin="round"/>
<path d="M59.9719 450.54L67.4425 447.263L58.4245 444.408L50.2617 447.357L59.9719 450.54Z" fill="#292B2F" stroke="#292B2F" stroke-miterlimit="10" stroke-linecap="round" stroke-linejoin="round"/>
<path d="M133.863 486.72L92.9941 472.92L92.9602 472.935L92.9451 472.903L72.78 466.094L59.3848 472.022L121.147 493.381L133.863 486.72Z" fill="#292B2F" stroke="#292B2F" stroke-miterlimit="10" stroke-linecap="round" stroke-linejoin="round"/>
<path d="M34.732 463.497L47.5281 457.568L41.6186 455.573L27.7461 461.081L34.732 463.497Z" fill="#292B2F" stroke="#292B2F" stroke-miterlimit="10" stroke-linecap="round" stroke-linejoin="round"/>
<path d="M58.0345 461.114L51.173 458.798L38.3379 464.744L44.7159 466.949L58.0345 461.114Z" fill="#292B2F" stroke="#292B2F" stroke-miterlimit="10" stroke-linecap="round" stroke-linejoin="round"/>
<path d="M69.0711 464.842L61.7587 462.372L48.4023 468.224L55.7135 470.753L69.0711 464.842Z" fill="#292B2F" stroke="#292B2F" stroke-miterlimit="10" stroke-linecap="round" stroke-linejoin="round"/>
<path d="M168.545 498.431L160.944 495.864L147.703 502.563L156 505.432L168.545 498.431Z" fill="#292B2F" stroke="#292B2F" stroke-miterlimit="10" stroke-linecap="round" stroke-linejoin="round"/>
<path d="M144.824 490.421L137.332 487.891L124.584 494.569L131.646 497.01L144.824 490.421Z" fill="#292B2F" stroke="#292B2F" stroke-miterlimit="10" stroke-linecap="round" stroke-linejoin="round"/>
<path d="M157.429 494.677L148.36 491.615L135.148 498.221L144.221 501.359L157.429 494.677Z" fill="#292B2F" stroke="#292B2F" stroke-miterlimit="10" stroke-linecap="round" stroke-linejoin="round"/>
<path d="M120.607 444.055L125.832 441.316L116.407 438.433L110.488 441.026L120.607 444.055Z" fill="#292B2F" stroke="#292B2F" stroke-miterlimit="10" stroke-linecap="round" stroke-linejoin="round"/>
<path d="M124.236 445.143L129.824 446.816L135.809 444.366L129.434 442.417L124.236 445.143Z" fill="#292B2F" stroke="#292B2F" stroke-miterlimit="10" stroke-linecap="round" stroke-linejoin="round"/>
<path d="M190.29 505.774L171.929 499.574L159.354 506.593L176.767 512.614L190.29 505.774Z" fill="#292B2F" stroke="#292B2F" stroke-miterlimit="10" stroke-linecap="round" stroke-linejoin="round"/>
<path d="M133.859 448.024L140.202 449.924L145.869 447.444L139.809 445.59L133.859 448.024Z" fill="#292B2F" stroke="#292B2F" stroke-miterlimit="10" stroke-linecap="round" stroke-linejoin="round"/>
<path d="M41.5435 452.753L41.6163 452.724L41.6402 452.785L52.8299 456.564L60.5468 453.514L46.2183 448.818L38.3281 451.668L41.5435 452.753Z" fill="#292B2F" stroke="#292B2F" stroke-miterlimit="10" stroke-linecap="round" stroke-linejoin="round"/>
<path d="M99.248 437.659L106.571 439.852L112.523 437.245L105.456 435.083L99.248 437.659Z" fill="#292B2F" stroke="#292B2F" stroke-miterlimit="10" stroke-linecap="round" stroke-linejoin="round"/>
<path d="M77.606 442.804L69.6392 440.357L62.5215 442.928L71.1201 445.65L77.606 442.804Z" fill="#292B2F" stroke="#292B2F" stroke-miterlimit="10" stroke-linecap="round" stroke-linejoin="round"/>
<path d="M282.402 526.25L271.466 522.666L262.922 527.504L273.561 531.097L282.402 526.25Z" fill="#292B2F" stroke="#292B2F" stroke-miterlimit="10" stroke-linecap="round" stroke-linejoin="round"/>
<path d="M322.515 507.283L313.209 512.384L326.353 516.421L335.558 511.188L322.515 507.283Z" fill="#292B2F" stroke="#292B2F" stroke-miterlimit="10" stroke-linecap="round" stroke-linejoin="round"/>
<path d="M95.2337 436.457L101.477 433.866L93.9664 431.569L87.1426 434.035L95.2337 436.457Z" fill="#292B2F" stroke="#292B2F" stroke-miterlimit="10" stroke-linecap="round" stroke-linejoin="round"/>
<path d="M309.97 514.159L301.783 518.646L315.05 522.845L323.189 518.219L309.97 514.159Z" fill="#292B2F" stroke="#292B2F" stroke-miterlimit="10" stroke-linecap="round" stroke-linejoin="round"/>
<path d="M273.816 533.977L260.172 541.455L273.934 546.214L287.397 538.563L273.816 533.977Z" fill="#292B2F" stroke="#292B2F" stroke-miterlimit="10" stroke-linecap="round" stroke-linejoin="round"/>
<path d="M298.571 520.407L289.029 525.637L302.416 530.026L311.911 524.629L298.571 520.407Z" fill="#292B2F" stroke="#292B2F" stroke-miterlimit="10" stroke-linecap="round" stroke-linejoin="round"/>
<path d="M38.3639 454.246L34.3309 453.111L19.8379 458.347L23.9111 459.755L38.3639 454.246Z" fill="#292B2F" stroke="#292B2F" stroke-miterlimit="10" stroke-linecap="round" stroke-linejoin="round"/>
<path d="M270.407 532.825L259.83 529.255L246.584 536.757L256.794 540.287L270.407 532.825Z" fill="#292B2F" stroke="#292B2F" stroke-miterlimit="10" stroke-linecap="round" stroke-linejoin="round"/>
<path d="M229.531 519.023L218.464 515.287L204.926 522.352L215.889 526.142L229.531 519.023Z" fill="#292B2F" stroke="#292B2F" stroke-miterlimit="10" stroke-linecap="round" stroke-linejoin="round"/>
<path d="M256.466 528.118L246.911 524.892L246.671 525.029L246.517 524.759L233.006 520.196L219.332 527.333L243.249 535.604L256.466 528.118Z" fill="#292B2F" stroke="#292B2F" stroke-miterlimit="10" stroke-linecap="round" stroke-linejoin="round"/>
<path d="M214.989 514.113L206.226 511.154L192.803 518.159L201.484 521.161L214.989 514.113Z" fill="#292B2F" stroke="#292B2F" stroke-miterlimit="10" stroke-linecap="round" stroke-linejoin="round"/>
<path d="M299.309 531.793L285.851 527.381L276.971 532.248L290.482 536.811L299.309 531.793Z" fill="#292B2F" stroke="#292B2F" stroke-miterlimit="10" stroke-linecap="round" stroke-linejoin="round"/>
<path d="M144.121 451.097L149.832 452.807L155.384 450.353L149.757 448.632L144.121 451.097Z" fill="#292B2F" stroke="#292B2F" stroke-miterlimit="10" stroke-linecap="round" stroke-linejoin="round"/>
<path d="M202.752 509.981L193.808 506.961L180.252 513.818L189.362 516.968L202.752 509.981Z" fill="#292B2F" stroke="#292B2F" stroke-miterlimit="10" stroke-linecap="round" stroke-linejoin="round"/>
<path d="M210.432 470.955L219.146 473.565L223.637 471.229L215.693 468.799L210.432 470.955Z" fill="#292B2F" stroke="#292B2F" stroke-miterlimit="10" stroke-linecap="round" stroke-linejoin="round"/>
<path d="M254.93 517.243L244.94 513.969L236.256 518.501L246.628 522.002L254.93 517.243Z" fill="#292B2F" stroke="#292B2F" stroke-miterlimit="10" stroke-linecap="round" stroke-linejoin="round"/>
<path d="M226.716 507.993L217.852 505.087L209.477 509.457L218.24 512.417L226.716 507.993Z" fill="#292B2F" stroke="#292B2F" stroke-miterlimit="10" stroke-linecap="round" stroke-linejoin="round"/>
<path d="M318.951 506.217L306.887 502.603L297.912 507.688L309.677 511.3L318.951 506.217Z" fill="#292B2F" stroke="#292B2F" stroke-miterlimit="10" stroke-linecap="round" stroke-linejoin="round"/>
<path d="M268.064 521.549L258.317 518.354L249.979 523.134L259.556 526.368L268.064 521.549Z" fill="#292B2F" stroke="#292B2F" stroke-miterlimit="10" stroke-linecap="round" stroke-linejoin="round"/>
<path d="M306.44 513.075L294.742 509.483L286.887 513.933L298.291 517.542L306.44 513.075Z" fill="#292B2F" stroke="#292B2F" stroke-miterlimit="10" stroke-linecap="round" stroke-linejoin="round"/>
<path d="M280.295 514.623L270.327 511.468L261.408 516.581L271.18 519.784L280.295 514.623Z" fill="#292B2F" stroke="#292B2F" stroke-miterlimit="10" stroke-linecap="round" stroke-linejoin="round"/>
<path d="M295.08 519.302L283.741 515.714L274.582 520.901L285.583 524.507L295.08 519.302Z" fill="#292B2F" stroke="#292B2F" stroke-miterlimit="10" stroke-linecap="round" stroke-linejoin="round"/>
<path d="M241.427 512.816L230.231 509.146L221.715 513.59L232.781 517.328L241.427 512.816Z" fill="#292B2F" stroke="#292B2F" stroke-miterlimit="10" stroke-linecap="round" stroke-linejoin="round"/>
<path d="M144.628 481.081L136.618 478.454L128.803 482.217L137.106 485.021L144.628 481.081Z" fill="#292B2F" stroke="#292B2F" stroke-miterlimit="10" stroke-linecap="round" stroke-linejoin="round"/>
<path d="M156.03 484.818L148.139 482.231L140.576 486.193L148.161 488.754L156.03 484.818Z" fill="#292B2F" stroke="#292B2F" stroke-miterlimit="10" stroke-linecap="round" stroke-linejoin="round"/>
<path d="M132.988 477.264L126.232 475.049L118.891 478.87L125.216 481.005L132.988 477.264Z" fill="#292B2F" stroke="#292B2F" stroke-miterlimit="10" stroke-linecap="round" stroke-linejoin="round"/>
<path d="M201.951 499.874L172.259 490.14L164.256 494.188L193.602 504.098L201.951 499.874Z" fill="#292B2F" stroke="#292B2F" stroke-miterlimit="10" stroke-linecap="round" stroke-linejoin="round"/>
<path d="M214.336 503.935L205.509 501.041L197.119 505.285L206.002 508.284L214.336 503.935Z" fill="#292B2F" stroke="#292B2F" stroke-miterlimit="10" stroke-linecap="round" stroke-linejoin="round"/>
<path d="M168.701 488.973L159.605 485.992L151.693 489.947L160.739 493.001L168.701 488.973Z" fill="#292B2F" stroke="#292B2F" stroke-miterlimit="10" stroke-linecap="round" stroke-linejoin="round"/>
<path d="M176.615 460.828L184.561 463.208L190.044 460.955L181.995 458.493L176.615 460.828Z" fill="#292B2F" stroke="#292B2F" stroke-miterlimit="10" stroke-linecap="round" stroke-linejoin="round"/>
<path d="M188.586 464.414L195.272 466.414L200.551 464.167L194.034 462.175L188.586 464.414Z" fill="#292B2F" stroke="#292B2F" stroke-miterlimit="10" stroke-linecap="round" stroke-linejoin="round"/>
<path d="M199.238 467.603L206.406 469.749L211.7 467.577L204.483 465.371L199.238 467.603Z" fill="#292B2F" stroke="#292B2F" stroke-miterlimit="10" stroke-linecap="round" stroke-linejoin="round"/>
<path d="M222.785 474.654L230.044 476.828L230.041 476.82L234.711 474.616L227.249 472.334L222.785 474.654Z" fill="#292B2F" stroke="#292B2F" stroke-miterlimit="10" stroke-linecap="round" stroke-linejoin="round"/>
<path d="M122.714 473.896L115.238 471.445L107.549 475.039L115.413 477.696L122.714 473.896Z" fill="#292B2F" stroke="#292B2F" stroke-miterlimit="10" stroke-linecap="round" stroke-linejoin="round"/>
<path d="M165.43 457.478L172.684 459.651L178.096 457.3L170.527 454.985L165.43 457.478Z" fill="#292B2F" stroke="#292B2F" stroke-miterlimit="10" stroke-linecap="round" stroke-linejoin="round"/>
<path d="M153.732 453.975L161.693 456.36L166.819 453.851L159.253 451.537L153.732 453.975Z" fill="#292B2F" stroke="#292B2F" stroke-miterlimit="10" stroke-linecap="round" stroke-linejoin="round"/>
<path d="M284.73 493.205L292.7 495.591L296.386 493.479L288.706 491.13L284.73 493.205Z" fill="#292B2F" stroke="#292B2F" stroke-miterlimit="10" stroke-linecap="round" stroke-linejoin="round"/>
<path d="M269.512 488.647L281.093 492.116L285.097 490.026L273.605 486.51L269.512 488.647Z" fill="#292B2F" stroke="#292B2F" stroke-miterlimit="10" stroke-linecap="round" stroke-linejoin="round"/>
<path d="M325.785 502.47L313.667 498.764L310.08 500.796L322.212 504.428L325.785 502.47Z" fill="#292B2F" stroke="#292B2F" stroke-miterlimit="10" stroke-linecap="round" stroke-linejoin="round"/>
<path d="M296.197 496.639L306.567 499.744L310.18 497.698L299.857 494.54L296.197 496.639Z" fill="#292B2F" stroke="#292B2F" stroke-miterlimit="10" stroke-linecap="round" stroke-linejoin="round"/>
<path d="M233.826 477.961L241.023 480.116L245.616 477.951L238.475 475.766L233.826 477.961Z" fill="#292B2F" stroke="#292B2F" stroke-miterlimit="10" stroke-linecap="round" stroke-linejoin="round"/>
<path d="M244.818 481.253L253.068 483.723L257.288 481.52L249.38 479.102L244.818 481.253Z" fill="#292B2F" stroke="#292B2F" stroke-miterlimit="10" stroke-linecap="round" stroke-linejoin="round"/>
<path d="M256.705 484.812L265.876 487.558L269.997 485.408L260.898 482.624L256.705 484.812Z" fill="#292B2F" stroke="#292B2F" stroke-miterlimit="10" stroke-linecap="round" stroke-linejoin="round"/>
<path d="M275.808 549.181L275.201 557.31L346.882 517.377L347.64 508.292L275.808 549.181Z" fill="white" stroke="#292B2F" stroke-miterlimit="10" stroke-linecap="round" stroke-linejoin="round"/>
<path d="M337.209 522.659V532.506L346.387 527.546L346.883 517.377L337.209 522.659Z" fill="white" stroke="#292B2F" stroke-miterlimit="10" stroke-linecap="round" stroke-linejoin="round"/>
<path d="M337.21 532.506L324.561 530.027L337.467 522.659L337.21 532.506Z" fill="#292B2F" stroke="#292B2F" stroke-miterlimit="10" stroke-linecap="round" stroke-linejoin="round"/>
<path d="M275.202 557.31L14.0703 465.524L14.1155 458.422L275.808 549.181L275.202 557.31Z" fill="white" stroke="#292B2F" stroke-miterlimit="10" stroke-linecap="round" stroke-linejoin="round"/>
<path d="M334.359 406.503L258.418 433.888L397.033 469.176L474.387 436.429L334.359 406.503Z" fill="#292B2F" stroke="#292B2F" stroke-miterlimit="10" stroke-linecap="round" stroke-linejoin="round"/>
<path d="M258.418 433.888V438.187L396.804 474.837L397.033 469.176L258.418 433.888Z" fill="white" stroke="#292B2F" stroke-miterlimit="10" stroke-linecap="round" stroke-linejoin="round"/>
<path d="M397.033 469.176L474.388 436.429L473.825 441.164L396.805 474.837L397.033 469.176Z" fill="white" stroke="#292B2F" stroke-miterlimit="10" stroke-linecap="round" stroke-linejoin="round"/>
<path d="M343.3 372.345L340.175 420.776L335.801 422.652L414.855 441.4L419.229 439.525L422.667 387.03L343.3 372.345Z" fill="white" stroke="#292B2F" stroke-miterlimit="10" stroke-linecap="round" stroke-linejoin="round"/>
<path d="M338.926 374.22L335.801 422.652L414.855 441.4L418.292 388.905L338.926 374.22Z" fill="#292B2F" stroke="#292B2F" stroke-miterlimit="10" stroke-linecap="round" stroke-linejoin="round"/>
<path d="M598.928 68.8451L594.198 67.0478L587.588 67.4547L587.04 69.2646L217.888 91.2371C215.872 91.3552 214.238 92.9138 214.026 94.9209L189.62 347.243C189.438 348.968 190.607 350.546 192.312 350.874L536.551 416.834L532.732 419.131L547.995 422.089L549.769 421.853L554.079 419.773C555.464 419.376 556.566 418.203 556.763 416.668L601.448 72.848C601.682 71.018 600.556 69.394 598.928 68.8451Z" fill="white" stroke="#292B2F" stroke-miterlimit="10" stroke-linecap="round" stroke-linejoin="round"/>
<path d="M211.812 92.4956L184.628 349.324C184.446 351.049 185.615 352.627 187.32 352.954L547.36 421.941C549.476 422.346 551.494 420.883 551.769 418.747L596.454 71.0168C596.753 68.6944 594.867 66.6735 592.53 66.8104L215.674 88.8105C213.658 88.9286 212.024 90.4873 211.812 92.4956Z" fill="#292B2F" stroke="#292B2F" stroke-miterlimit="10" stroke-linecap="round" stroke-linejoin="round"/>
<path d="M220.084 100.248L197.201 313.268L541.669 366.106L580.483 80.2772L220.084 100.248Z" fill="#3264FF" stroke="#292B2F" stroke-miterlimit="10" stroke-linecap="round" stroke-linejoin="round"/>
<path d="M258.014 241.427C313.151 224.546 374.881 205.958 431.919 189.48C489.717 172.783 536.21 166.503 568.72 164.646" stroke="#292B2F" stroke-miterlimit="10" stroke-linecap="round" stroke-linejoin="round"/>
<path d="M217.002 132.111C217.002 132.111 328.315 134.68 449.902 184.342" stroke="#292B2F" stroke-miterlimit="10" stroke-linecap="round" stroke-linejoin="round"/>
<path d="M305.455 330.91C305.455 330.91 389.968 251.607 470.015 209.854C537.437 174.687 566.481 173.84 566.481 173.84" stroke="#292B2F" stroke-miterlimit="10" stroke-linecap="round" stroke-linejoin="round"/>
<path d="M187.319 352.954L547.36 421.941C549.476 422.346 551.495 420.883 551.77 418.747L556.11 384.968L187.213 324.896L184.628 349.322C184.445 351.049 185.614 352.627 187.319 352.954Z" fill="white" stroke="#292B2F" stroke-miterlimit="10" stroke-linecap="round" stroke-linejoin="round"/>
<path d="M197.201 313.268L249.185 321.241L260.163 221.877L207.425 218.091L197.201 313.268Z" fill="#292B2F" stroke="#292B2F" stroke-miterlimit="10" stroke-linecap="round" stroke-linejoin="round"/>
<path d="M254.397 252.712L243.364 251.444L239.195 284.095L250.763 285.594L254.397 252.712Z" fill="#9AA5B9" stroke="#292B2F" stroke-miterlimit="10" stroke-linecap="round" stroke-linejoin="round"/>
<path d="M237.393 249.254C237.382 249.337 237.353 249.414 237.312 249.483L254.535 251.464L257.328 226.182L240.647 224.984L237.393 249.254Z" fill="#9AA5B9" stroke="#292B2F" stroke-miterlimit="10" stroke-linecap="round" stroke-linejoin="round"/>
<path d="M237.95 283.934L242.116 251.299L225.645 249.405L221.619 281.816L237.95 283.934Z" fill="#9AA5B9" stroke="#292B2F" stroke-miterlimit="10" stroke-linecap="round" stroke-linejoin="round"/>
<path d="M241.415 285.65L221.465 283.062L217.861 312.073L237.945 315.154L241.415 285.65Z" fill="#9AA5B9" stroke="#292B2F" stroke-miterlimit="10" stroke-linecap="round" stroke-linejoin="round"/>
<path d="M236.17 249.352C236.145 249.27 236.133 249.18 236.146 249.089L239.391 224.894L228.783 224.132L225.799 248.159L236.17 249.352Z" fill="#9AA5B9" stroke="#292B2F" stroke-miterlimit="10" stroke-linecap="round" stroke-linejoin="round"/>
<path d="M242.662 285.812L239.188 315.345L247.339 316.595L250.626 286.843L242.662 285.812Z" fill="#9AA5B9" stroke="#292B2F" stroke-miterlimit="10" stroke-linecap="round" stroke-linejoin="round"/>
</svg>
