<svg width="870" height="870" viewBox="0 0 870 870" fill="none" xmlns="http://www.w3.org/2000/svg">
<path d="M767.25 568.465C743.276 632.681 694.288 702.183 625.352 722.761C521.193 753.862 508.75 837.821 322.189 830.034C293.101 828.822 266.216 824.733 241.517 818.205C228.24 814.697 215.592 810.464 203.588 805.589C94.6021 761.444 37.7485 664.287 33.0292 562.629C26.7986 428.927 120.088 365.198 180.716 327.883C241.346 290.568 314.418 145.98 497.88 152.194C525.85 153.154 553.758 156.977 580.8 164.307C642.531 181.014 705.283 217.967 741.75 271.989C744.487 276.047 747.099 280.201 749.599 284.432C798.4 367.227 799.94 480.92 767.25 568.465Z" fill="#3264FF"/>
<path opacity="0.7" d="M767.25 568.465C743.276 632.681 694.288 702.183 625.352 722.761C521.193 753.862 508.75 837.821 322.189 830.034C293.101 828.822 266.216 824.733 241.517 818.205C228.24 814.697 215.592 810.464 203.588 805.589C94.6021 761.444 37.7485 664.287 33.0292 562.629C26.7986 428.927 120.088 365.198 180.716 327.883C241.346 290.568 314.418 145.98 497.88 152.194C525.85 153.154 553.758 156.977 580.8 164.307C642.531 181.014 705.283 217.967 741.75 271.989C744.487 276.047 747.099 280.201 749.599 284.432C798.4 367.227 799.94 480.92 767.25 568.465Z" fill="white"/>
<path d="M370.973 332.076C370.973 332.076 340.21 325.084 317.835 336.97C295.462 348.856 292.664 365.637 286.373 388.709C280.079 411.782 265.397 436.253 252.112 456.529C238.827 476.805 260.502 506.171 294.063 518.057C327.624 529.943 385.657 528.544 411.526 513.163C437.396 497.781 429.006 471.211 422.712 450.236C416.42 429.26 412.923 416.674 412.923 409.683C412.923 402.692 426.23 398.077 417.118 369.83C410.127 348.157 389.153 327.882 370.973 332.076Z" fill="#292B2F" stroke="#292B2F" stroke-miterlimit="10" stroke-linecap="round" stroke-linejoin="round"/>
<path d="M289.768 423.088C283.95 425.402 280.398 426.404 280.398 426.404" stroke="#9AA5B9" stroke-miterlimit="10" stroke-linecap="round" stroke-linejoin="round"/>
<path d="M364.701 359.089C364.701 359.089 356.523 380.479 330.729 399.981C318.81 408.992 307.162 415.317 298.076 419.514" stroke="#9AA5B9" stroke-miterlimit="10" stroke-linecap="round" stroke-linejoin="round"/>
<path d="M341.531 353.782C336.704 359.935 328.888 369.872 317.517 384.253C296.127 411.305 290.465 416.339 281.027 419.483" stroke="#9AA5B9" stroke-miterlimit="10" stroke-linecap="round" stroke-linejoin="round"/>
<path d="M347.715 345.877C347.715 345.877 346.659 347.236 344.387 350.139" stroke="#9AA5B9" stroke-miterlimit="10" stroke-linecap="round" stroke-linejoin="round"/>
<path d="M372.879 338.327C372.879 338.327 396.157 357.201 388.607 370.413" stroke="#9AA5B9" stroke-miterlimit="10" stroke-linecap="round" stroke-linejoin="round"/>
<path d="M415.044 378.497C416.09 382.16 416.06 386.005 414.4 389.917" stroke="#9AA5B9" stroke-miterlimit="10" stroke-linecap="round" stroke-linejoin="round"/>
<path d="M386.092 350.281C386.092 350.281 404.811 359.799 412.508 372.753" stroke="#9AA5B9" stroke-miterlimit="10" stroke-linecap="round" stroke-linejoin="round"/>
<path d="M438.244 741.11C432.827 742.735 348.883 779.562 323.428 788.227C297.974 796.892 274.145 798.517 274.145 798.517L286.512 824.076C304.106 827.173 322.6 829.195 342.022 830.006C418.852 833.208 468.031 821.844 505.848 804.771C499.584 789.779 488.707 764.897 481.032 753.566C469.656 736.777 443.659 739.484 438.244 741.11Z" fill="#292B2F" stroke="#292B2F" stroke-miterlimit="10" stroke-linecap="round" stroke-linejoin="round"/>
<path d="M405.146 758.55C446.605 747.033 462.202 742.824 483.195 753.565C481.029 749.232 470.739 732.984 470.739 732.984C452.324 728.11 392.209 743.274 345.09 762.23C297.972 781.185 269.267 766.021 269.267 766.021C269.267 766.021 268.726 800.141 280.64 802.848C280.64 802.848 363.687 770.067 405.146 758.55Z" fill="#3264FF" stroke="#292B2F" stroke-miterlimit="10" stroke-linecap="round" stroke-linejoin="round"/>
<path d="M310.207 489.26C310.207 489.26 221.608 517.434 218.36 523.933C215.109 530.432 184.781 647.414 184.781 647.414C184.781 647.414 195.613 661.496 201.571 665.828C207.528 670.161 218.901 672.327 228.65 665.828C238.399 659.33 251.397 633.334 251.397 633.334C251.397 633.334 268.728 763.857 269.269 766.023C269.81 768.189 277.934 776.313 290.932 780.105C303.929 783.896 361.88 762.774 393.834 753.566C425.787 744.36 452.325 741.109 464.239 738.943C476.155 736.777 479.944 731.903 477.778 722.154C475.612 712.405 475.612 691.826 475.612 691.826C475.612 691.826 498.359 709.697 502.15 699.95C505.942 690.201 486.445 652.289 477.778 615.462C469.113 578.635 465.863 530.975 449.616 522.851C433.368 514.727 370.003 496.855 370.003 496.855C370.003 496.855 325.97 486.14 311.97 490.144" fill="#3264FF"/>
<path d="M310.207 489.26C310.207 489.26 221.608 517.434 218.36 523.933C215.109 530.432 184.781 647.414 184.781 647.414C184.781 647.414 195.613 661.496 201.571 665.828C207.528 670.161 218.901 672.327 228.65 665.828C238.399 659.33 251.397 633.334 251.397 633.334C251.397 633.334 268.728 763.857 269.269 766.023C269.81 768.189 277.934 776.313 290.932 780.105C303.929 783.896 361.88 762.774 393.834 753.566C425.787 744.36 452.325 741.109 464.239 738.943C476.155 736.777 479.944 731.903 477.778 722.154C475.612 712.405 475.612 691.826 475.612 691.826C475.612 691.826 498.359 709.697 502.15 699.95C505.942 690.201 486.445 652.289 477.778 615.462C469.113 578.635 465.863 530.975 449.616 522.851C433.368 514.727 370.003 496.855 370.003 496.855C370.003 496.855 325.97 486.14 311.97 490.144" stroke="#292B2F" stroke-miterlimit="10" stroke-linecap="round" stroke-linejoin="round"/>
<path d="M419.744 576.967L427.411 654.997" stroke="#292B2F" stroke-miterlimit="10" stroke-linecap="round" stroke-linejoin="round"/>
<path d="M418.203 561.301L418.997 569.377" stroke="#292B2F" stroke-miterlimit="10" stroke-linecap="round" stroke-linejoin="round"/>
<path d="M354.777 651.118C356.911 652.493 359.103 653.796 361.337 654.997" stroke="#292B2F" stroke-miterlimit="10" stroke-linecap="round" stroke-linejoin="round"/>
<path d="M321.26 620.877C321.26 620.877 333.894 636.574 351.115 648.655" stroke="#292B2F" stroke-miterlimit="10" stroke-linecap="round" stroke-linejoin="round"/>
<path d="M331.551 641.458C331.551 641.458 344.549 652.831 360.797 662.039" stroke="#292B2F" stroke-miterlimit="10" stroke-linecap="round" stroke-linejoin="round"/>
<path d="M413.098 739.959C419.292 740.332 424.858 740.567 429.036 740.567" stroke="#292B2F" stroke-miterlimit="10" stroke-linecap="round" stroke-linejoin="round"/>
<path d="M357.004 735.152C357.004 735.152 382.66 737.824 404.873 739.415" stroke="#292B2F" stroke-miterlimit="10" stroke-linecap="round" stroke-linejoin="round"/>
<path d="M318.553 738.943C318.553 738.943 354.298 745.983 382.459 745.983" stroke="#292B2F" stroke-miterlimit="10" stroke-linecap="round" stroke-linejoin="round"/>
<path d="M314.219 477.357C314.219 477.357 304.226 498.133 305.013 507.144C305.798 516.155 319.095 530.973 339.133 532.598C359.17 534.224 375.418 521.226 377.585 515.268C379.751 509.31 383 490.355 383 490.355C383 490.355 358.086 496.854 338.049 485.481C318.011 474.108 314.76 472.483 314.76 472.483L314.219 477.357Z" fill="#3264FF" stroke="#292B2F" stroke-miterlimit="10" stroke-linecap="round" stroke-linejoin="round"/>
<path d="M318.381 525.407L325.082 504.273" stroke="#292B2F" stroke-miterlimit="10" stroke-linecap="round" stroke-linejoin="round"/>
<path d="M326.111 501.179L327.658 495.51" stroke="#292B2F" stroke-miterlimit="10" stroke-linecap="round" stroke-linejoin="round"/>
<path d="M336.936 514.066L331.268 531.076" stroke="#292B2F" stroke-miterlimit="10" stroke-linecap="round" stroke-linejoin="round"/>
<path d="M308.586 515.613L313.74 499.634" stroke="#292B2F" stroke-miterlimit="10" stroke-linecap="round" stroke-linejoin="round"/>
<path d="M384.957 374.027C384.957 374.027 370.275 395.003 352.795 403.393C335.315 411.783 317.137 416.678 317.137 416.678C317.137 416.678 316.438 426.467 312.942 427.864C309.446 429.263 305.251 424.369 305.251 424.369L294.764 427.165C294.764 427.165 291.268 432.059 294.065 437.652C296.861 443.244 305.251 444.643 305.251 444.643C305.251 444.643 310.845 471.911 317.137 480.301C323.429 488.691 345.803 505.472 361.885 503.373C377.966 501.275 404.535 473.308 405.233 462.821C405.933 452.334 407.33 430.659 408.029 419.472C408.729 408.286 410.826 401.992 405.931 395.001C401.036 388.01 384.957 374.027 384.957 374.027Z" fill="white" stroke="#292B2F" stroke-miterlimit="10" stroke-linecap="round" stroke-linejoin="round"/>
<path d="M337.412 439.051C337.412 439.051 344.403 445.344 355.59 441.149" stroke="#292B2F" stroke-miterlimit="10" stroke-linecap="round" stroke-linejoin="round"/>
<path d="M378.664 441.849C378.664 441.849 389.151 446.743 395.445 441.849" stroke="#292B2F" stroke-miterlimit="10" stroke-linecap="round" stroke-linejoin="round"/>
<path d="M338.111 424.369C338.111 424.369 351.396 420.174 362.583 424.369" stroke="#292B2F" stroke-width="2" stroke-miterlimit="10" stroke-linecap="round" stroke-linejoin="round"/>
<path d="M378.664 425.766C378.664 425.766 394.745 422.97 399.64 427.864" stroke="#292B2F" stroke-width="2" stroke-miterlimit="10" stroke-linecap="round" stroke-linejoin="round"/>
<path d="M374.468 462.125C374.468 462.125 368.176 466.32 361.883 464.223" stroke="#292B2F" stroke-miterlimit="10" stroke-linecap="round" stroke-linejoin="round"/>
<path d="M349.297 471.213C349.297 471.213 362.582 481.7 379.362 473.311" stroke="#292B2F" stroke-miterlimit="10" stroke-linecap="round" stroke-linejoin="round"/>
<path d="M497.818 691.824C489.693 678.826 466.405 676.119 457.74 679.367C449.075 682.616 439.326 678.826 439.326 678.826L412.246 708.613C412.246 708.613 441.492 721.611 455.572 730.276C469.654 738.942 480.485 738.4 493.483 724.86C506.481 711.321 502.148 697.78 502.148 697.78" fill="#3264FF"/>
<path d="M497.818 691.824C489.693 678.826 466.405 676.119 457.74 679.367C449.075 682.616 439.326 678.826 439.326 678.826L412.246 708.613C412.246 708.613 441.492 721.611 455.572 730.276C469.654 738.942 480.485 738.4 493.483 724.86C506.481 711.321 502.148 697.78 502.148 697.78" stroke="#292B2F" stroke-miterlimit="10" stroke-linecap="round" stroke-linejoin="round"/>
<path d="M414.955 682.077C414.955 682.077 407.372 695.616 410.081 704.824C412.788 714.03 434.453 704.824 442.575 690.201C450.698 675.578 424.161 667.454 414.955 682.077Z" fill="white" stroke="#292B2F" stroke-miterlimit="10" stroke-linecap="round" stroke-linejoin="round"/>
<path d="M421.553 602.138L386.529 667.682C385.6 669.422 386.67 671.557 388.619 671.856L421.767 676.921C422.891 677.093 424.012 676.582 424.618 675.618L464.693 611.998C465.772 610.286 464.779 608.026 462.788 607.662L424.588 600.674C423.367 600.448 422.14 601.041 421.553 602.138Z" fill="#292B2F" stroke="#292B2F" stroke-miterlimit="10" stroke-linecap="round" stroke-linejoin="round"/>
<path d="M426.327 693.449C426.327 693.449 406.288 683.7 403.039 679.367C399.789 675.035 401.957 672.869 401.957 672.869C401.957 672.869 394.917 669.62 392.208 665.286C389.5 660.953 395.456 659.869 395.456 659.869L431.201 666.909C431.201 666.909 412.245 659.326 408.454 659.326C404.663 659.326 402.496 656.076 403.58 652.827C404.663 649.577 405.747 648.495 413.33 650.661C420.912 652.827 439.325 657.16 439.325 657.16C439.325 657.16 438.784 652.286 437.159 651.202C435.534 650.12 420.911 645.244 417.662 641.996C414.412 638.745 417.121 636.038 420.912 636.038C424.704 636.038 449.074 644.703 451.241 646.328C453.407 647.953 451.241 661.492 451.241 661.492C451.241 661.492 451.241 674.49 449.074 680.989C446.908 687.488 434.992 699.945 434.992 699.945" fill="white"/>
<path d="M426.327 693.449C426.327 693.449 406.288 683.7 403.039 679.367C399.789 675.035 401.957 672.869 401.957 672.869C401.957 672.869 394.917 669.62 392.208 665.286C389.5 660.953 395.456 659.869 395.456 659.869L431.201 666.909C431.201 666.909 412.245 659.326 408.454 659.326C404.663 659.326 402.496 656.076 403.58 652.827C404.663 649.577 405.747 648.495 413.33 650.661C420.912 652.827 439.325 657.16 439.325 657.16C439.325 657.16 438.784 652.286 437.159 651.202C435.534 650.12 420.911 645.244 417.662 641.996C414.412 638.745 417.121 636.038 420.912 636.038C424.704 636.038 449.074 644.703 451.241 646.328C453.407 647.953 451.241 661.492 451.241 661.492C451.241 661.492 451.241 674.49 449.074 680.989C446.908 687.488 434.992 699.945 434.992 699.945" stroke="#292B2F" stroke-miterlimit="10" stroke-linecap="round" stroke-linejoin="round"/>
<path d="M401.955 672.869L428.494 683.7" stroke="#292B2F" stroke-miterlimit="10" stroke-linecap="round" stroke-linejoin="round"/>
<path d="M431.201 666.912L444.742 675.578" stroke="#292B2F" stroke-miterlimit="10" stroke-linecap="round" stroke-linejoin="round"/>
<path d="M439.324 657.163C439.324 657.163 445.823 659.871 447.989 662.58" stroke="#292B2F" stroke-miterlimit="10" stroke-linecap="round" stroke-linejoin="round"/>
<path d="M255.817 737.13V817.358C241.631 813.61 228.117 809.088 215.291 803.878V737.13H255.817Z" fill="#292B2F" stroke="#292B2F" stroke-miterlimit="10" stroke-linecap="round" stroke-linejoin="round"/>
<path d="M256.413 747.447H213.965C206.967 747.447 201.293 741.772 201.293 734.774V705.591C201.293 698.593 206.967 692.918 213.965 692.918H256.413C263.411 692.918 269.085 698.593 269.085 705.591V734.774C269.085 741.772 263.411 747.447 256.413 747.447Z" fill="#292B2F" stroke="#292B2F" stroke-miterlimit="10" stroke-linecap="round" stroke-linejoin="round"/>
<path d="M398.596 693.155C377.325 682.329 314.353 674.478 239.971 674.478C165.59 674.478 102.617 682.327 81.3458 693.155H73.6445V701.216C73.6445 715.984 148.111 727.955 239.971 727.955C331.831 727.955 406.298 715.984 406.298 701.216V693.155H398.596Z" fill="#292B2F" stroke="#292B2F" stroke-miterlimit="10" stroke-linecap="round" stroke-linejoin="round"/>
<path d="M239.971 719.894C331.831 719.894 406.298 707.922 406.298 693.155C406.298 678.388 331.831 666.417 239.971 666.417C148.111 666.417 73.6445 678.388 73.6445 693.155C73.6445 707.922 148.111 719.894 239.971 719.894Z" fill="white" stroke="#292B2F" stroke-miterlimit="10" stroke-linecap="round" stroke-linejoin="round"/>
<path d="M288.162 512.188C288.162 512.188 279.786 476.475 279.786 472.948C279.786 469.421 298.745 457.516 303.154 454.871C307.563 452.226 311.53 456.193 311.53 456.193C311.53 456.193 315.057 459.28 317.704 459.72C320.349 460.161 322.553 463.247 322.553 466.774C322.553 470.301 323.435 483.089 323.435 486.175C323.435 489.262 318.586 492.789 315.94 492.789C313.293 492.789 313.735 487.498 313.735 487.498C313.735 487.498 311.53 489.262 310.208 489.262C308.886 489.262 307.563 489.702 307.563 489.702C307.563 489.702 309.328 509.543 305.799 516.157C302.272 522.771 300.949 527.62 300.949 527.62L236.576 662.98C236.576 662.98 225.996 682.821 211.886 683.262C197.776 683.702 184.108 674.003 182.344 660.776C180.58 647.548 186.753 632.558 196.012 621.975C205.27 611.393 278.904 527.62 288.162 512.188Z" fill="white" stroke="#292B2F" stroke-miterlimit="10" stroke-linecap="round" stroke-linejoin="round"/>
<path d="M307.561 489.702V480.444L317.136 480.304L311.97 490.144C311.97 490.144 310.647 488.378 307.561 489.702Z" fill="white" stroke="#292B2F" stroke-miterlimit="10" stroke-linecap="round" stroke-linejoin="round"/>
<path d="M317.704 459.719C317.704 459.719 298.304 468.537 295.218 471.182C292.131 473.826 292.131 473.826 292.131 473.826" stroke="#292B2F" stroke-miterlimit="10" stroke-linecap="round" stroke-linejoin="round"/>
<path d="M311.531 456.192C311.531 456.192 291.689 465.892 285.518 471.183" stroke="#292B2F" stroke-miterlimit="10" stroke-linecap="round" stroke-linejoin="round"/>
<path d="M282.871 468.097C282.871 468.097 283.085 467.864 283.461 467.455C286.2 464.486 297.581 452.223 298.743 452.223C300.066 452.223 303.153 454.867 303.153 454.867L282.871 468.097Z" stroke="#292B2F" stroke-miterlimit="10" stroke-linecap="round" stroke-linejoin="round"/>
<path d="M271.671 533.738C246.703 564.256 203.003 613.983 196.012 621.975C186.753 632.558 180.58 647.548 182.344 660.776C184.107 674.003 197.776 683.704 211.886 683.262C225.996 682.821 236.576 662.98 236.576 662.98L291.689 547.091C284.219 543.606 276.863 538.088 271.671 533.738Z" fill="#3264FF" stroke="#292B2F" stroke-miterlimit="10" stroke-linecap="round" stroke-linejoin="round"/>
<path d="M131.771 582.394C131.663 584.755 131.956 587.283 132.953 589.776C136.572 598.826 137.628 602.553 136.158 609.9" stroke="#292B2F" stroke-miterlimit="10" stroke-linecap="round"/>
<path d="M135.263 570.835C135.263 570.835 133.71 573.342 132.67 577.022" stroke="#292B2F" stroke-miterlimit="10" stroke-linecap="round"/>
<path d="M148.2 570.835C148.2 570.835 142.194 580.537 145.889 589.778C149.509 598.828 150.565 602.555 149.095 609.901" stroke="#292B2F" stroke-miterlimit="10" stroke-linecap="round"/>
<path d="M162.668 604.565C162.64 606.197 162.428 607.916 162.031 609.9" stroke="#292B2F" stroke-miterlimit="10" stroke-linecap="round"/>
<path d="M161.136 570.835C161.136 570.835 155.129 580.537 158.825 589.778C160.146 593.081 161.125 595.675 161.766 597.994" stroke="#292B2F" stroke-miterlimit="10" stroke-linecap="round"/>
<path d="M172.241 629.48C172.241 629.48 178.235 623.486 182.595 628.391C186.956 633.296 185.32 657.819 181.506 665.447C177.692 673.077 168.943 665.844 168.943 665.844L168.971 660.544C168.971 660.544 172.877 664.161 177.238 659.803C181.598 655.442 180.415 638.201 178.78 635.476C177.146 632.751 170.605 636.565 170.605 636.565L172.241 629.48Z" fill="white" stroke="#292B2F" stroke-miterlimit="10" stroke-linecap="round" stroke-linejoin="round"/>
<path d="M161.883 689.117H134.425C130.495 689.117 127.232 686.079 126.952 682.157L122.271 616.444H174.038L169.358 682.157C169.077 686.077 165.815 689.117 161.883 689.117Z" fill="white" stroke="#292B2F" stroke-miterlimit="10" stroke-linecap="round" stroke-linejoin="round"/>
<path d="M707.69 115.158H628.24L628.16 115.446C625.81 123.912 620.394 129.408 614.4 129.408H610.952C604.957 129.408 599.541 123.912 597.191 115.446L597.112 115.158H517.662C495.534 115.158 477.596 133.096 477.596 155.224V608.903C477.596 621.6 487.889 631.894 500.587 631.894H724.769C737.466 631.894 747.761 621.602 747.761 608.903V155.225C747.756 133.097 729.818 115.158 707.69 115.158Z" fill="white" stroke="#292B2F" stroke-miterlimit="10" stroke-linecap="round" stroke-linejoin="round"/>
<path d="M496.717 227.804V228.23H495.058V227.715C495.058 226.302 494.52 225.473 493.265 225.473C492.011 225.473 491.473 226.302 491.473 227.692C491.473 231.211 496.741 231.547 496.741 235.962C496.741 238.337 495.598 239.884 493.199 239.884C490.801 239.884 489.682 238.339 489.682 235.962V235.065H491.317V236.052C491.317 237.464 491.899 238.294 493.156 238.294C494.41 238.294 494.993 237.464 494.993 236.052C494.993 232.556 489.75 232.22 489.75 227.804C489.75 225.384 490.871 223.881 493.222 223.881C495.596 223.882 496.717 225.428 496.717 227.804Z" fill="#292B2F"/>
<path d="M500.014 232.668V239.727H498.266V224.038H500.014V231.098H503.868V224.038H505.616V239.727H503.868V232.668H500.014Z" fill="#292B2F"/>
<path d="M509.178 236.567L508.573 239.727H506.959L509.963 224.038H512.496L515.5 239.727H513.752L513.147 236.567H509.178ZM509.401 235.065H512.897L511.127 226.011L509.401 235.065Z" fill="#292B2F"/>
<path d="M520.361 224.038C522.826 224.038 523.856 225.295 523.856 227.624V228.901C523.856 230.626 523.252 231.703 521.905 232.128C523.34 232.553 523.878 233.72 523.878 235.4V237.842C523.878 238.536 523.9 239.187 524.192 239.725H522.423C522.221 239.276 522.131 238.873 522.131 237.82V235.353C522.131 233.583 521.3 233.023 519.844 233.023H518.611V239.724H516.863V224.035H520.361V224.038ZM519.912 231.435C521.302 231.435 522.131 230.986 522.131 229.284V227.783C522.131 226.371 521.614 225.632 520.315 225.632H518.611V231.437L519.912 231.435Z" fill="#292B2F"/>
<path d="M531.276 230.986V232.554H527.443V238.135H532.15V239.727H525.695V224.038H532.15V225.631H527.443V230.988L531.276 230.986Z" fill="#292B2F"/>
<path d="M539.006 236.567L538.401 239.727H536.787L539.791 224.038H542.324L545.329 239.727H543.581L542.976 236.567H539.006ZM539.229 235.065H542.726L540.955 226.011L539.229 235.065Z" fill="#292B2F"/>
<path d="M550.168 239.727V224.038H551.916V238.136H556.398V239.728L550.168 239.727Z" fill="#292B2F"/>
<path d="M559.467 224.038V239.727H557.719V224.038H559.467Z" fill="#292B2F"/>
<path d="M562.806 239.727H561.238V224.038H563.456L567.088 235.379V224.038H568.633V239.727H566.817L562.805 227.041V239.727H562.806Z" fill="#292B2F"/>
<path d="M573.096 232.914L572.178 234.46V239.727H570.43V224.038H572.178V231.615L576.346 224.038H578.116L574.15 231.188L578.252 239.727H576.459L573.096 232.914Z" fill="#292B2F"/>
<path d="M504.057 415.352V422.412H502.309V406.723H504.057V413.783H507.911V406.723H509.659V422.412H507.911V415.352H504.057Z" fill="#292B2F"/>
<path d="M513.715 422.412V408.314H510.824V406.722H518.332V408.314H515.441V422.412H513.715Z" fill="#292B2F"/>
<path d="M521.784 422.412V408.314H518.893V406.722H526.401V408.314H523.51V422.412H521.784Z" fill="#292B2F"/>
<path d="M531.017 406.723C533.482 406.723 534.536 408.18 534.536 410.557V412.439C534.536 414.926 533.37 416.226 530.882 416.226H529.336V422.412H527.588V406.723H531.017ZM530.882 414.658C532.183 414.658 532.81 414.053 532.81 412.552V410.468C532.81 409.033 532.293 408.317 531.017 408.317H529.336V414.66L530.882 414.658Z" fill="#292B2F"/>
<path d="M542.694 410.489V410.915H541.035V410.399C541.035 408.987 540.497 408.158 539.242 408.158C537.987 408.158 537.449 408.987 537.449 410.377C537.449 413.896 542.718 414.232 542.718 418.646C542.718 421.022 541.574 422.569 539.175 422.569C536.777 422.569 535.658 421.023 535.658 418.646V417.75H537.293V418.737C537.293 420.149 537.876 420.979 539.132 420.979C540.387 420.979 540.969 420.149 540.969 418.737C540.969 415.241 535.725 414.903 535.725 410.489C535.725 408.069 536.847 406.566 539.199 406.566C541.573 406.567 542.694 408.113 542.694 410.489Z" fill="#292B2F"/>
<path d="M545.92 411.7V413.873H544.238V411.7H545.92ZM545.92 420.238V422.413H544.238V420.238H545.92Z" fill="#292B2F"/>
<path d="M554.884 406.723L548.697 422.412H547.174L553.359 406.723H554.884Z" fill="#292B2F"/>
<path d="M559.279 406.723L553.092 422.412H551.568L557.754 406.723H559.279Z" fill="#292B2F"/>
<path d="M563.312 416.787L559.996 406.723H561.811L564.255 414.434L566.719 406.723H568.378L565.038 416.787V422.413H563.312V416.787Z" fill="#292B2F"/>
<path d="M569.16 410.511C569.16 408.113 570.348 406.566 572.747 406.566C575.167 406.566 576.355 408.113 576.355 410.511V418.624C576.355 421.001 575.167 422.569 572.747 422.569C570.348 422.569 569.16 421.001 569.16 418.624V410.511ZM570.886 418.715C570.886 420.149 571.491 420.979 572.747 420.979C574.024 420.979 574.607 420.149 574.607 418.715V410.423C574.607 409.011 574.024 408.159 572.747 408.159C571.491 408.159 570.886 409.011 570.886 410.423V418.715Z" fill="#292B2F"/>
<path d="M579.672 418.715C579.672 420.127 580.232 420.979 581.51 420.979C582.765 420.979 583.325 420.127 583.325 418.715V406.725H584.962V418.626C584.962 421.003 583.862 422.593 581.443 422.593C579.044 422.593 577.947 421.003 577.947 418.626V406.725H579.673L579.672 418.715Z" fill="#292B2F"/>
<path d="M590.184 406.723C592.648 406.723 593.68 407.979 593.68 410.309V411.585C593.68 413.311 593.075 414.388 591.73 414.813C593.164 415.238 593.702 416.403 593.702 418.084V420.527C593.702 421.221 593.724 421.872 594.016 422.41H592.245C592.045 421.961 591.956 421.558 591.956 420.504V418.038C591.956 416.268 591.125 415.707 589.668 415.707H588.436V422.408H586.688V406.72H590.184V406.723ZM589.735 414.12C591.125 414.12 591.954 413.671 591.954 411.969V410.468C591.954 409.056 591.438 408.317 590.138 408.317H588.434V414.122L589.735 414.12Z" fill="#292B2F"/>
<path d="M595.518 422.412V406.723H597.266V420.821H601.747V422.413H595.518V422.412Z" fill="#292B2F"/>
<path d="M604.816 406.723V422.412H603.068V406.723H604.816Z" fill="#292B2F"/>
<path d="M608.156 422.412H606.588V406.723H608.806L612.437 418.064V406.723H613.983V422.412H612.168L608.155 409.726V422.412H608.156Z" fill="#292B2F"/>
<path d="M618.442 415.599L617.524 417.145V422.412H615.775V406.723H617.524V414.298L621.692 406.723H623.462L619.496 413.873L623.597 422.412H621.805L618.442 415.599Z" fill="#292B2F"/>
<path d="M632.115 406.723L625.928 422.412H624.404L630.59 406.723H632.115Z" fill="#292B2F"/>
<path d="M698.613 414.162C697.893 414.162 697.273 413.992 696.754 413.652C696.234 413.312 695.834 412.844 695.554 412.247C695.274 411.651 695.134 410.969 695.134 410.203C695.134 409.423 695.277 408.735 695.564 408.138C695.854 407.538 696.257 407.07 696.774 406.733C697.293 406.394 697.9 406.224 698.593 406.224C699.133 406.224 699.62 406.324 700.053 406.523C700.486 406.723 700.841 407.003 701.118 407.363C701.394 407.723 701.566 408.143 701.632 408.623H700.453C700.363 408.273 700.163 407.963 699.853 407.693C699.546 407.42 699.133 407.283 698.613 407.283C698.153 407.283 697.75 407.403 697.403 407.643C697.06 407.88 696.792 408.215 696.599 408.648C696.409 409.078 696.314 409.583 696.314 410.163C696.314 410.756 696.407 411.272 696.594 411.712C696.784 412.152 697.05 412.494 697.393 412.737C697.74 412.98 698.147 413.102 698.613 413.102C698.92 413.102 699.198 413.049 699.448 412.942C699.698 412.835 699.91 412.682 700.083 412.482C700.256 412.282 700.379 412.042 700.453 411.762H701.632C701.566 412.216 701.401 412.624 701.138 412.987C700.878 413.347 700.533 413.634 700.103 413.847C699.676 414.057 699.18 414.162 698.613 414.162ZM706.476 414.162C705.783 414.162 705.175 413.997 704.652 413.667C704.132 413.337 703.725 412.875 703.432 412.282C703.142 411.689 702.997 410.996 702.997 410.203C702.997 409.403 703.142 408.705 703.432 408.108C703.725 407.512 704.132 407.048 704.652 406.718C705.175 406.389 705.783 406.224 706.476 406.224C707.17 406.224 707.776 406.389 708.296 406.718C708.819 407.048 709.226 407.512 709.516 408.108C709.809 408.705 709.956 409.403 709.956 410.203C709.956 410.996 709.809 411.689 709.516 412.282C709.226 412.875 708.819 413.337 708.296 413.667C707.776 413.997 707.17 414.162 706.476 414.162ZM706.476 413.102C707.003 413.102 707.436 412.967 707.776 412.697C708.116 412.427 708.368 412.072 708.531 411.632C708.694 411.192 708.776 410.716 708.776 410.203C708.776 409.689 708.694 409.211 708.531 408.768C708.368 408.325 708.116 407.966 707.776 407.693C707.436 407.42 707.003 407.283 706.476 407.283C705.95 407.283 705.517 407.42 705.177 407.693C704.837 407.966 704.585 408.325 704.422 408.768C704.259 409.211 704.177 409.689 704.177 410.203C704.177 410.716 704.259 411.192 704.422 411.632C704.585 412.072 704.837 412.427 705.177 412.697C705.517 412.967 705.95 413.102 706.476 413.102ZM711.756 416.881V406.324H712.896V407.543H713.036C713.123 407.41 713.243 407.24 713.396 407.033C713.553 406.823 713.776 406.637 714.066 406.473C714.359 406.307 714.756 406.224 715.256 406.224C715.902 406.224 716.472 406.385 716.965 406.708C717.459 407.032 717.843 407.49 718.12 408.083C718.397 408.676 718.535 409.376 718.535 410.183C718.535 410.996 718.397 411.701 718.12 412.297C717.843 412.89 717.46 413.35 716.97 413.677C716.48 414 715.916 414.162 715.276 414.162C714.782 414.162 714.388 414.08 714.091 413.917C713.794 413.75 713.566 413.562 713.406 413.352C713.246 413.139 713.123 412.962 713.036 412.822H712.936V416.881H711.756ZM712.916 410.163C712.916 410.743 713.001 411.254 713.171 411.697C713.341 412.137 713.589 412.482 713.916 412.732C714.243 412.979 714.643 413.102 715.116 413.102C715.609 413.102 716.021 412.972 716.35 412.712C716.684 412.449 716.934 412.096 717.1 411.652C717.27 411.206 717.355 410.709 717.355 410.163C717.355 409.623 717.272 409.136 717.105 408.703C716.942 408.266 716.694 407.922 716.36 407.668C716.031 407.412 715.616 407.283 715.116 407.283C714.636 407.283 714.233 407.405 713.906 407.648C713.579 407.888 713.333 408.225 713.166 408.658C713 409.088 712.916 409.589 712.916 410.163ZM720.819 416.881C720.62 416.881 720.441 416.865 720.285 416.831C720.128 416.801 720.02 416.771 719.96 416.741L720.26 415.701C720.546 415.775 720.799 415.801 721.019 415.781C721.239 415.761 721.434 415.663 721.604 415.487C721.778 415.313 721.936 415.032 722.079 414.642L722.299 414.042L719.46 406.324H720.74L722.859 412.442H722.939L725.059 406.324H726.338L723.079 415.122C722.932 415.518 722.751 415.846 722.534 416.106C722.317 416.37 722.066 416.565 721.779 416.691C721.496 416.818 721.176 416.881 720.819 416.881Z" fill="#3264FF"/>
<path d="M487.898 463.199H734.793" stroke="#292B2F" stroke-miterlimit="10"/>
<path d="M510.009 286.655C519.506 286.655 527.205 278.956 527.205 269.459C527.205 259.962 519.506 252.263 510.009 252.263C500.511 252.263 492.812 259.962 492.812 269.459C492.812 278.956 500.511 286.655 510.009 286.655Z" fill="#292B2F" stroke="#292B2F" stroke-miterlimit="10" stroke-linecap="round" stroke-linejoin="round"/>
<path d="M561.598 286.655C571.096 286.655 578.794 278.956 578.794 269.459C578.794 259.962 571.096 252.263 561.598 252.263C552.101 252.263 544.402 259.962 544.402 269.459C544.402 278.956 552.101 286.655 561.598 286.655Z" fill="#3264FF" stroke="#292B2F" stroke-miterlimit="10" stroke-linecap="round" stroke-linejoin="round"/>
<path d="M613.188 286.655C622.685 286.655 630.384 278.956 630.384 269.459C630.384 259.962 622.685 252.263 613.188 252.263C603.691 252.263 595.992 259.962 595.992 269.459C595.992 278.956 603.691 286.655 613.188 286.655Z" fill="#292B2F" stroke="#292B2F" stroke-miterlimit="10" stroke-linecap="round" stroke-linejoin="round"/>
<path d="M664.778 286.655C674.275 286.655 681.974 278.956 681.974 269.459C681.974 259.962 674.275 252.263 664.778 252.263C655.281 252.263 647.582 259.962 647.582 269.459C647.582 278.956 655.281 286.655 664.778 286.655Z" fill="#3264FF" stroke="#292B2F" stroke-miterlimit="10" stroke-linecap="round" stroke-linejoin="round"/>
<path d="M716.368 286.655C725.865 286.655 733.564 278.956 733.564 269.459C733.564 259.962 725.865 252.263 716.368 252.263C706.871 252.263 699.172 259.962 699.172 269.459C699.172 278.956 706.871 286.655 716.368 286.655Z" fill="#292B2F" stroke="#292B2F" stroke-miterlimit="10" stroke-linecap="round" stroke-linejoin="round"/>
<path d="M495.27 297.71H524.748" stroke="#292B2F" stroke-miterlimit="10"/>
<path d="M546.857 297.71H576.338" stroke="#292B2F" stroke-miterlimit="10"/>
<path d="M598.449 297.71H627.928" stroke="#292B2F" stroke-miterlimit="10"/>
<path d="M650.037 297.71H679.518" stroke="#292B2F" stroke-miterlimit="10"/>
<path d="M701.627 297.71H731.108" stroke="#292B2F" stroke-miterlimit="10"/>
<path d="M513.974 351.304C523.215 349.112 528.929 339.844 526.737 330.603C524.545 321.362 515.277 315.648 506.036 317.84C496.796 320.032 491.082 329.3 493.274 338.541C495.465 347.781 504.733 353.495 513.974 351.304Z" fill="#3264FF" stroke="#292B2F" stroke-miterlimit="10" stroke-linecap="round" stroke-linejoin="round"/>
<path d="M577.513 341.113C581.124 332.329 576.93 322.281 568.147 318.67C559.363 315.059 549.315 319.253 545.704 328.037C542.093 336.821 546.287 346.869 555.071 350.479C563.855 354.09 573.902 349.897 577.513 341.113Z" fill="#292B2F" stroke="#292B2F" stroke-miterlimit="10" stroke-linecap="round" stroke-linejoin="round"/>
<path d="M629.105 341.114C632.716 332.33 628.522 322.282 619.738 318.671C610.954 315.06 600.907 319.254 597.296 328.038C593.685 336.822 597.879 346.869 606.662 350.48C615.446 354.091 625.494 349.897 629.105 341.114Z" fill="#3264FF" stroke="#292B2F" stroke-miterlimit="10" stroke-linecap="round" stroke-linejoin="round"/>
<path d="M668.744 351.307C677.984 349.115 683.699 339.847 681.507 330.606C679.315 321.365 670.047 315.651 660.806 317.843C651.565 320.035 645.851 329.303 648.043 338.544C650.235 347.784 659.503 353.499 668.744 351.307Z" fill="#292B2F" stroke="#292B2F" stroke-miterlimit="10" stroke-linecap="round" stroke-linejoin="round"/>
<path d="M728.521 346.722C735.236 340.007 735.236 329.119 728.521 322.404C721.806 315.688 710.918 315.688 704.202 322.404C697.487 329.119 697.487 340.007 704.202 346.722C710.918 353.438 721.806 353.438 728.521 346.722Z" fill="#3264FF" stroke="#292B2F" stroke-miterlimit="10" stroke-linecap="round" stroke-linejoin="round"/>
<path d="M495.27 362.812H524.748" stroke="#292B2F" stroke-miterlimit="10"/>
<path d="M546.857 362.812H576.338" stroke="#292B2F" stroke-miterlimit="10"/>
<path d="M598.449 362.812H627.928" stroke="#292B2F" stroke-miterlimit="10"/>
<path d="M650.037 362.812H679.518" stroke="#292B2F" stroke-miterlimit="10"/>
<path d="M701.627 362.812H731.108" stroke="#292B2F" stroke-miterlimit="10"/>
<path d="M736.02 398.097H486.67V433.719H736.02V398.097Z" stroke="#292B2F" stroke-miterlimit="10"/>
<path d="M747.756 188.19V155.225C747.756 133.097 729.818 115.159 707.69 115.159H628.24L628.16 115.447C625.81 123.914 620.394 129.41 614.4 129.41H610.952C604.957 129.41 599.541 123.914 597.191 115.447L597.112 115.159H517.662C495.534 115.159 477.596 133.097 477.596 155.225V188.191L747.756 188.19Z" fill="#9AA5B9" stroke="#292B2F" stroke-miterlimit="10" stroke-linecap="round" stroke-linejoin="round"/>
<path d="M593.251 171.339H502.98V182.172H593.251V171.339Z" fill="white" stroke="#292B2F" stroke-miterlimit="10" stroke-linecap="round" stroke-linejoin="round"/>
<path d="M747.756 166.899V155.225C747.756 133.097 729.818 115.159 707.69 115.159H628.24L628.16 115.447C625.81 123.914 620.394 129.41 614.4 129.41H610.952C604.957 129.41 599.541 123.914 597.191 115.447L597.112 115.159H517.662C495.534 115.159 477.596 133.097 477.596 155.225V166.899H747.756Z" fill="white" stroke="#292B2F" stroke-miterlimit="10" stroke-linecap="round" stroke-linejoin="round"/>
<path d="M764.942 261.839V211.068H760.348V146.066C760.348 123.938 742.41 106 720.282 106H505.066C482.938 106 465 123.938 465 146.066V614.854C465 636.983 482.938 654.921 505.066 654.921H720.282C742.41 654.921 760.348 636.983 760.348 614.854V305.112H764.942V275.111H760.348V261.841L764.942 261.839ZM747.755 586.237C747.755 608.365 729.817 626.303 707.689 626.303H517.658C495.53 626.303 477.592 608.365 477.592 586.237V155.226C477.592 133.097 495.53 115.159 517.658 115.159H597.108L597.187 115.447C599.537 123.916 604.953 129.41 610.948 129.41H614.396C620.39 129.41 625.807 123.914 628.156 115.447L628.236 115.159H707.686C729.814 115.159 747.752 133.097 747.752 155.226V586.237H747.755Z" fill="#9AA5B9" stroke="#292B2F" stroke-miterlimit="10" stroke-linecap="round" stroke-linejoin="round"/>
<path d="M713.262 111.52H512.085C488.641 111.52 469.637 130.524 469.637 153.968V606.956C469.637 630.4 488.641 649.404 512.085 649.404H713.262C736.705 649.404 755.71 630.4 755.71 606.956V153.968C755.708 130.524 736.703 111.52 713.262 111.52ZM747.754 586.237C747.754 608.365 729.816 626.303 707.688 626.303H517.657C495.529 626.303 477.591 608.365 477.591 586.237V155.226C477.591 133.097 495.529 115.159 517.657 115.159H597.107L597.186 115.447C599.536 123.916 604.952 129.41 610.947 129.41H614.395C620.389 129.41 625.805 123.914 628.155 115.447L628.235 115.159H707.685C729.813 115.159 747.751 133.097 747.751 155.226V586.237H747.754Z" fill="#292B2F" stroke="#292B2F" stroke-miterlimit="10" stroke-linecap="round" stroke-linejoin="round"/>
<path d="M615.61 117.078C615.61 115 613.926 113.316 611.848 113.316C609.77 113.316 608.086 115 608.086 117.078C608.086 119.155 609.77 120.84 611.848 120.84C613.926 120.84 615.61 119.155 615.61 117.078Z" fill="#9AA5B9"/>
<path d="M501.602 131.493C501.602 135.299 497.328 136.668 497.31 139.572V139.771H501.458V141.053H495.922V139.97C495.922 135.895 500.197 135.102 500.197 131.548C500.197 130.251 499.762 129.565 498.718 129.565C497.689 129.565 497.239 130.303 497.239 131.421V132.539H495.922V131.512C495.922 129.582 496.805 128.3 498.753 128.3C500.719 128.3 501.602 129.565 501.602 131.493Z" fill="#292B2F"/>
<path d="M508.511 131.475V131.8C508.511 133.099 507.988 134.019 506.979 134.396C508.043 134.793 508.511 135.75 508.511 137.012V137.987C508.511 139.916 507.609 141.179 505.661 141.179C503.731 141.179 502.83 139.916 502.83 137.987V137.12H504.147V138.076C504.147 139.212 504.616 139.897 505.626 139.897C506.654 139.897 507.105 139.23 507.105 137.95V136.976C507.105 135.731 506.581 135.137 505.517 135.1H504.76V133.838H505.589C506.527 133.801 507.105 133.207 507.105 132.107V131.529C507.105 130.231 506.653 129.564 505.626 129.564C504.616 129.564 504.147 130.267 504.147 131.403V132.053H502.83V131.476C502.83 129.547 503.731 128.302 505.661 128.302C507.608 128.3 508.511 129.545 508.511 131.475Z" fill="#292B2F"/>
<path d="M511.238 132.432V134.181H509.885V132.432H511.238ZM511.238 139.302V141.051H509.885V139.302H511.238Z" fill="#292B2F"/>
<path d="M514.087 133.567C514.483 132.881 515.115 132.521 515.962 132.521C517.586 132.521 518.306 133.712 518.306 135.514V137.985C518.306 139.915 517.387 141.177 515.457 141.177C513.526 141.177 512.625 139.915 512.625 137.985V137.136H513.942V138.074C513.942 139.211 514.411 139.895 515.421 139.895C516.43 139.895 516.9 139.211 516.9 138.074V135.622C516.9 134.487 516.43 133.801 515.421 133.801C514.645 133.801 514.122 134.234 513.996 135.154V135.442H512.679L513.021 128.426H517.998V129.689H514.282L514.087 133.567Z" fill="#292B2F"/>
<path d="M525.324 131.457V131.691H524.007V131.367C524.007 130.23 523.538 129.563 522.511 129.563C521.446 129.563 520.978 130.247 520.978 131.601V134.431C521.32 133.567 522.006 133.078 523.016 133.078C524.639 133.078 525.361 134.25 525.361 136.071V137.983C525.361 139.913 524.404 141.175 522.474 141.175C520.526 141.175 519.57 139.913 519.57 137.983V131.545C519.57 129.544 520.473 128.299 522.474 128.299C524.423 128.3 525.324 129.528 525.324 131.457ZM520.978 136.183V138.076C520.978 139.212 521.447 139.897 522.474 139.897C523.484 139.897 523.971 139.212 523.971 138.076V136.183C523.971 135.046 523.484 134.361 522.474 134.361C521.447 134.361 520.978 135.046 520.978 136.183Z" fill="#292B2F"/>
<path d="M663.147 132.011H659.582V140.922H663.147V132.011Z" fill="#292B2F"/>
<path d="M667.899 130.227H664.334V140.924H667.899V130.227Z" fill="#292B2F"/>
<path d="M672.653 128.959H669.088V140.924H672.653V128.959Z" fill="#292B2F"/>
<path d="M677.405 126.754H673.84V140.924H677.405V126.754Z" fill="#292B2F"/>
<path d="M721.515 140.679H700.127V127.609H721.515V140.679ZM701.316 139.491H720.327V128.797H701.316V139.491Z" fill="#292B2F"/>
<path d="M714.386 130.09H703.098V138.198H714.386V130.09Z" fill="#292B2F"/>
<path d="M723.462 132.605H720.773V135.684H723.462V132.605Z" fill="#292B2F"/>
<path d="M692.286 137.835C692.148 137.835 692.006 137.8 691.877 137.724C687.525 135.137 684.648 137.538 684.528 137.64C684.196 137.928 683.692 137.891 683.404 137.56C683.116 137.227 683.146 136.729 683.478 136.439C683.632 136.304 687.311 133.151 692.696 136.352C693.075 136.576 693.199 137.068 692.973 137.447C692.823 137.697 692.559 137.835 692.286 137.835Z" fill="#292B2F"/>
<path d="M693.895 135.151C693.756 135.151 693.615 135.116 693.486 135.04C687.192 131.297 682.964 134.919 682.919 134.952C682.588 135.245 682.085 135.212 681.794 134.88C681.502 134.549 681.532 134.045 681.865 133.755C681.918 133.709 687.019 129.338 694.304 133.667C694.683 133.892 694.809 134.384 694.581 134.763C694.431 135.013 694.167 135.151 693.895 135.151Z" fill="#292B2F"/>
<path d="M695.359 132.042C695.22 132.042 695.078 132.007 694.95 131.93C686.98 127.191 681.68 131.653 681.458 131.846C681.125 132.134 680.621 132.099 680.333 131.768C680.043 131.437 680.075 130.935 680.406 130.644C680.468 130.588 686.765 125.202 695.768 130.556C696.147 130.781 696.273 131.273 696.045 131.652C695.897 131.903 695.631 132.042 695.359 132.042Z" fill="#292B2F"/>
<path d="M689.882 139.174C689.882 140.281 688.984 141.179 687.877 141.179C686.771 141.179 685.873 140.281 685.873 139.174C685.873 138.068 686.769 137.171 687.877 137.171C688.984 137.171 689.882 138.068 689.882 139.174Z" fill="#292B2F"/>
</svg>
